<svg width="143" height="55" viewBox="0 0 143 55" fill="none" xmlns="http://www.w3.org/2000/svg">
<path d="M47.8963 38V16.1818H62.598V19.9851H52.5092V25.1839H61.8416V28.9872H52.5092V34.1967H62.6406V38H47.8963ZM79.7953 26.3026L75.6404 26.5582C75.5694 26.2031 75.4167 25.8835 75.1824 25.5994C74.948 25.3082 74.639 25.0774 74.2555 24.907C73.8791 24.7294 73.4281 24.6406 72.9025 24.6406C72.1994 24.6406 71.6064 24.7898 71.1234 25.0881C70.6404 25.3793 70.399 25.7699 70.399 26.2599C70.399 26.6506 70.5552 26.9808 70.8677 27.2507C71.1802 27.5206 71.7164 27.7372 72.4764 27.9006L75.438 28.4972C77.0289 28.8239 78.215 29.3494 78.9963 30.0739C79.7775 30.7983 80.1681 31.75 80.1681 32.929C80.1681 34.0014 79.8521 34.9425 79.22 35.7521C78.595 36.5618 77.7356 37.1939 76.6419 37.6484C75.5552 38.0959 74.3017 38.3196 72.8812 38.3196C70.715 38.3196 68.9892 37.8686 67.7037 36.9666C66.4252 36.0575 65.676 34.8217 65.4558 33.2592L69.9196 33.0249C70.0545 33.6854 70.3812 34.1896 70.8997 34.5376C71.4181 34.8786 72.0822 35.049 72.8919 35.049C73.6873 35.049 74.3265 34.8963 74.8095 34.5909C75.2995 34.2784 75.5481 33.8771 75.5552 33.3871C75.5481 32.9751 75.3741 32.6378 75.0332 32.375C74.6923 32.1051 74.1667 31.8991 73.4565 31.7571L70.6227 31.1925C69.0247 30.8729 67.835 30.3189 67.0538 29.5305C66.2797 28.7422 65.8926 27.7372 65.8926 26.5156C65.8926 25.4645 66.1767 24.5589 66.7449 23.799C67.3201 23.0391 68.1262 22.4531 69.1632 22.0412C70.2072 21.6293 71.4288 21.4233 72.8279 21.4233C74.8947 21.4233 76.5211 21.8601 77.7072 22.7337C78.9004 23.6072 79.5964 24.7969 79.7953 26.3026ZM90.4194 38.3196C88.7433 38.3196 87.3015 37.9645 86.0941 37.2543C84.8938 36.5369 83.9705 35.5426 83.3242 34.2713C82.685 33 82.3654 31.5369 82.3654 29.8821C82.3654 28.206 82.6886 26.7358 83.3349 25.4716C83.9883 24.2003 84.9151 23.2095 86.1154 22.4993C87.3157 21.782 88.7433 21.4233 90.3981 21.4233C91.8256 21.4233 93.0756 21.6825 94.1481 22.201C95.2205 22.7195 96.0692 23.4474 96.6942 24.3849C97.3192 25.3224 97.6637 26.4233 97.7276 27.6875H93.445C93.3242 26.8707 93.0046 26.2138 92.4862 25.7166C91.9748 25.2124 91.3036 24.9602 90.4727 24.9602C89.7695 24.9602 89.1552 25.152 88.6296 25.5355C88.1112 25.9119 87.7063 26.4624 87.4151 27.1868C87.1239 27.9112 86.9783 28.7884 86.9783 29.8182C86.9783 30.8622 87.1204 31.75 87.4045 32.4815C87.6957 33.2131 88.104 33.7706 88.6296 34.1541C89.1552 34.5376 89.7695 34.7294 90.4727 34.7294C90.9911 34.7294 91.4563 34.6229 91.8683 34.4098C92.2873 34.1967 92.6317 33.8878 92.9016 33.483C93.1786 33.071 93.3597 32.5774 93.445 32.0021H97.7276C97.6566 33.2521 97.3157 34.353 96.7049 35.3047C96.1012 36.2493 95.2667 36.9879 94.2013 37.5206C93.136 38.0533 91.8754 38.3196 90.4194 38.3196ZM108.027 38.3196C106.372 38.3196 104.941 37.968 103.733 37.2649C102.533 36.5547 101.606 35.5675 100.953 34.3033C100.3 33.032 99.9728 31.5582 99.9728 29.8821C99.9728 28.1918 100.3 26.7145 100.953 25.4503C101.606 24.179 102.533 23.1918 103.733 22.4886C104.941 21.7784 106.372 21.4233 108.027 21.4233C109.682 21.4233 111.109 21.7784 112.309 22.4886C113.517 23.1918 114.447 24.179 115.101 25.4503C115.754 26.7145 116.081 28.1918 116.081 29.8821C116.081 31.5582 115.754 33.032 115.101 34.3033C114.447 35.5675 113.517 36.5547 112.309 37.2649C111.109 37.968 109.682 38.3196 108.027 38.3196ZM108.048 34.804C108.801 34.804 109.43 34.5909 109.934 34.1648C110.438 33.7315 110.818 33.142 111.074 32.3963C111.336 31.6506 111.468 30.8018 111.468 29.8501C111.468 28.8984 111.336 28.0497 111.074 27.304C110.818 26.5582 110.438 25.9687 109.934 25.5355C109.43 25.1023 108.801 24.8857 108.048 24.8857C107.288 24.8857 106.649 25.1023 106.131 25.5355C105.619 25.9687 105.232 26.5582 104.969 27.304C104.714 28.0497 104.586 28.8984 104.586 29.8501C104.586 30.8018 104.714 31.6506 104.969 32.3963C105.232 33.142 105.619 33.7315 106.131 34.1648C106.649 34.5909 107.288 34.804 108.048 34.804ZM123.57 16.1818V38H119.032V16.1818H123.57ZM131.872 38.3089C130.828 38.3089 129.897 38.1278 129.081 37.7656C128.264 37.3963 127.618 36.853 127.142 36.1357C126.673 35.4112 126.439 34.5092 126.439 33.4297C126.439 32.5206 126.605 31.7571 126.939 31.1392C127.273 30.5213 127.728 30.0241 128.303 29.6477C128.878 29.2713 129.532 28.9872 130.263 28.7955C131.002 28.6037 131.776 28.4688 132.586 28.3906C133.537 28.2912 134.304 28.1989 134.887 28.1136C135.469 28.0213 135.892 27.8864 136.154 27.7088C136.417 27.5312 136.549 27.2685 136.549 26.9205V26.8565C136.549 26.1818 136.336 25.6598 135.909 25.2905C135.49 24.9212 134.894 24.7365 134.12 24.7365C133.303 24.7365 132.653 24.9176 132.17 25.2798C131.687 25.6349 131.368 26.0824 131.211 26.6222L127.014 26.2812C127.227 25.2869 127.646 24.4276 128.271 23.7031C128.896 22.9716 129.702 22.4105 130.689 22.0199C131.684 21.6222 132.834 21.4233 134.141 21.4233C135.05 21.4233 135.92 21.5298 136.751 21.7429C137.589 21.956 138.331 22.2862 138.978 22.7337C139.631 23.1811 140.146 23.7564 140.522 24.4595C140.899 25.1555 141.087 25.9901 141.087 26.9631V38H136.783V35.7308H136.655C136.392 36.2422 136.041 36.6932 135.6 37.0838C135.16 37.4673 134.631 37.7692 134.013 37.9893C133.395 38.2024 132.681 38.3089 131.872 38.3089ZM133.172 35.1768C133.839 35.1768 134.429 35.0455 134.94 34.7827C135.451 34.5128 135.853 34.1506 136.144 33.696C136.435 33.2415 136.581 32.7266 136.581 32.1513V30.4148C136.439 30.5071 136.243 30.5923 135.995 30.6705C135.753 30.7415 135.48 30.8089 135.174 30.8729C134.869 30.9297 134.564 30.983 134.258 31.0327C133.953 31.0753 133.676 31.1143 133.427 31.1499C132.895 31.228 132.429 31.3523 132.032 31.5227C131.634 31.6932 131.325 31.924 131.105 32.2152C130.885 32.4993 130.775 32.8544 130.775 33.2805C130.775 33.8984 130.998 34.3707 131.446 34.6974C131.9 35.017 132.475 35.1768 133.172 35.1768Z" fill="#192335"/>
<path d="M34.7919 16.3785L32.2684 16.3784V13.7662C32.2684 13.1681 31.8308 12.66 31.2393 12.5715C31.136 12.556 28.6776 12.1989 25.7172 12.7376C22.417 13.338 19.785 14.8189 17.9999 17.0575C16.2147 14.8189 13.5827 13.338 10.2826 12.7376C7.32216 12.199 4.86374 12.556 4.76059 12.5715C4.16908 12.6601 3.7315 13.1682 3.7315 13.7662V16.3784H1.208C0.540968 16.3784 0 16.9194 0 17.5865V40.3507C0 40.7418 0.189333 41.1087 0.508241 41.3354C0.827149 41.5621 1.236 41.6202 1.60533 41.4915C1.69599 41.4601 10.7484 38.3707 17.4986 41.4497C17.8172 41.595 18.1828 41.595 18.5014 41.4497C25.2326 38.3794 34.3045 41.4604 34.3947 41.4915C34.5241 41.5366 34.6582 41.5588 34.7918 41.5588C35.0394 41.5588 35.2845 41.4827 35.4918 41.3355C35.8107 41.1089 36 40.7419 36 40.3508V17.5866C35.9999 16.9195 35.459 16.3785 34.7919 16.3785ZM2.41611 38.7343V18.7945H3.7315V34.8825C3.7315 35.2335 3.88508 35.5668 4.15065 35.7963C4.41623 36.0257 4.76944 36.1286 5.11659 36.0774C5.18326 36.0677 10.4312 35.3472 14.2654 37.9778C9.54239 37.1702 4.81538 38.1044 2.41611 38.7343ZM16.7919 36.8884C15.1032 35.3626 12.9036 34.3308 10.2826 33.854C9.0213 33.6244 7.85112 33.5575 6.91537 33.5575C6.63755 33.5575 6.38034 33.5634 6.14774 33.5728V14.8755H6.14762C8.46943 14.7708 14.1175 15.019 16.7919 19.5527V36.8884ZM19.2079 19.5528C21.8728 15.0385 27.5297 14.779 29.8523 14.8785V33.5728C28.8361 33.5318 27.3529 33.5563 25.7172 33.854C23.0963 34.3308 20.8967 35.3625 19.2079 36.8884V19.5528ZM21.7305 37.9786C25.5651 35.3463 30.8159 36.0675 30.8813 36.0772C31.2293 36.1295 31.5823 36.0272 31.8487 35.7978C32.1152 35.5683 32.2684 35.2342 32.2684 34.8825V18.7946H33.5838V38.7343C31.1838 38.1041 26.4548 37.1696 21.7305 37.9786Z" fill="#25C6DA"/>
</svg>
