<svg width="40" height="36" viewBox="0 0 40 36" fill="none" xmlns="http://www.w3.org/2000/svg">
<path d="M27.0629 35.9375H0.625008C0.312504 35.9375 0 35.6875 0 35.3125C0 34.9375 0.250003 34.6875 0.625008 34.6875H27.0629C27.3754 34.6875 27.6879 34.9375 27.6879 35.3125C27.6879 35.6875 27.3754 35.9375 27.0629 35.9375Z" fill="white"/>
<path d="M27.0648 35.9358H4.43946C4.12696 35.9358 3.81445 35.6858 3.81445 35.3108V19.3731C3.81445 19.0606 4.06446 18.748 4.43946 18.748C4.81447 18.748 5.06447 18.9981 5.06447 19.3731V34.6858H27.0648C27.3773 34.6858 27.6898 34.9358 27.6898 35.3108C27.6898 35.6858 27.3773 35.9358 27.0648 35.9358Z" fill="white"/>
<path d="M2.81254 20.6253C2.06253 20.6253 1.37502 20.3753 0.812511 19.8128C0.312504 19.3128 0 18.5628 0 17.8127C0 17.1252 0.312504 16.4377 0.75001 15.8752L15.0627 1.56252C17.0627 -0.437507 20.2503 -0.437507 22.2503 1.56252L28.3754 7.6876C28.6254 7.93761 28.6254 8.31261 28.3754 8.56261C28.1254 8.81262 27.7504 8.81262 27.5004 8.56261L21.3753 2.43753C19.8753 0.937512 17.4377 0.937512 15.9377 2.43753L1.68752 16.6877C1.43752 17.0002 1.25002 17.4377 1.25002 17.8127C1.25002 18.1252 1.31252 18.5628 1.68752 18.9378C2.31253 19.5628 3.37505 19.5628 4.00005 18.9378L18.2502 4.68756C18.5003 4.43756 18.8753 4.43756 19.1253 4.68756L24.3128 9.87513C24.5628 10.1251 24.5628 10.5001 24.3128 10.7501C24.0628 11.0001 23.6878 11.0001 23.4378 10.7501L18.6878 6.00008L4.87507 19.8128C4.31256 20.3753 3.56255 20.6253 2.81254 20.6253Z" fill="white"/>
<path d="M20.5626 35.9396H11.6875C11.375 35.9396 11.0625 35.6896 11.0625 35.3146V23.9395C11.0625 22.9395 11.875 22.0645 12.9375 22.0645H19.3751C20.3751 22.0645 21.1876 22.9395 21.1876 23.9395V35.3146C21.1876 35.6271 20.8751 35.9396 20.5626 35.9396ZM12.3125 34.6896H19.9376V23.9395C19.9376 23.5645 19.6251 23.3145 19.3751 23.3145H12.9375C12.5625 23.3145 12.3125 23.627 12.3125 23.9395V34.6896Z" fill="white"/>
<path d="M30.9357 35.8754C30.1232 35.8754 29.3731 35.4379 28.9356 34.7503C26.7481 31.1253 21.8105 22.3752 21.8105 18.6251C21.8105 13.6251 25.8731 9.5625 30.8732 9.5625C35.8732 9.5625 39.9983 13.6251 39.9983 18.6251C39.9983 21.2502 37.6233 26.6252 32.9982 34.7503C32.4982 35.4379 31.7482 35.8754 30.9357 35.8754ZM30.8732 10.8125C26.5606 10.8125 23.0606 14.3126 23.0606 18.6251C23.0606 22.1252 28.3731 31.3753 29.9982 34.1253C30.1857 34.4378 30.5607 34.6878 30.9982 34.6878C31.4357 34.6878 31.7482 34.5003 31.9982 34.1253C37.5608 24.3127 38.7483 20.2501 38.7483 18.6251C38.7483 14.3126 35.2482 10.8125 30.8732 10.8125Z" fill="white"/>
<path d="M30.9395 24.4357C27.752 24.4357 25.127 21.8107 25.127 18.6231C25.127 15.4356 27.752 12.8105 30.9395 12.8105C34.1271 12.8105 36.7521 15.4356 36.7521 18.6231C36.7521 21.8107 34.1271 24.4357 30.9395 24.4357ZM30.9395 14.0606C28.4395 14.0606 26.377 16.1231 26.377 18.6231C26.377 21.1232 28.4395 23.1857 30.9395 23.1857C33.4396 23.1857 35.5021 21.1232 35.5021 18.6231C35.5021 16.1231 33.4396 14.0606 30.9395 14.0606Z" fill="white"/>
<path d="M13.5625 30.125C13.25 30.125 12.9375 29.875 12.9375 29.5V28.6875C12.9375 28.375 13.1875 28.0625 13.5625 28.0625C13.9375 28.0625 14.1875 28.3125 14.1875 28.6875V29.5C14.1875 29.8125 13.875 30.125 13.5625 30.125Z" fill="white"/>
</svg>
