<svg width="40" height="40" viewBox="0 0 40 40" fill="none" xmlns="http://www.w3.org/2000/svg">
<path d="M34.7559 8.5775L26.4225 0.244141C26.2663 0.0878906 26.0547 0 25.8333 0H8.33328C6.49492 0 5 1.49492 5 3.33336V36.6667C5 38.5051 6.49492 40 8.33336 40H31.6667C33.5051 40 35 38.5051 35 36.6666V9.16664C35 8.94531 34.9121 8.73375 34.7559 8.5775ZM26.6666 2.84508L32.1549 8.33336H28.3333C27.4145 8.33336 26.6666 7.58547 26.6666 6.66672V2.84508ZM33.3334 36.6666C33.3334 37.5854 32.5855 38.3333 31.6667 38.3333H8.33336C7.41461 38.3333 6.66672 37.5854 6.66672 36.6666V3.33336C6.66672 2.41461 7.41461 1.66672 8.33336 1.66672H25V6.66672C25 8.50508 26.4949 10 28.3334 10H33.3334V36.6666Z" fill="#192335"/>
<path d="M24.2488 24.4644C23.4773 23.8573 22.7441 23.2331 22.2559 22.7448C21.6211 22.1101 21.0555 21.4948 20.564 20.9089C21.3306 18.5399 21.6667 17.3184 21.6667 16.6673C21.6667 13.9012 20.6673 13.334 19.1667 13.334C18.0266 13.334 16.6667 13.9264 16.6667 16.7471C16.6667 17.9906 17.3479 19.5002 18.698 21.2548C18.3676 22.263 17.9794 23.426 17.5432 24.737C17.3332 25.3661 17.1054 25.9488 16.8645 26.4875C16.6684 26.5746 16.4779 26.6633 16.294 26.7552C15.6316 27.0865 15.0025 27.3843 14.419 27.661C11.7578 28.9208 10 29.7541 10 31.3996C10 32.5943 11.298 33.334 12.5 33.334C14.0495 33.334 16.3891 31.2645 18.0981 27.7781C19.8722 27.0783 22.0777 26.5598 23.8184 26.2352C25.2132 27.3077 26.7537 28.334 27.5 28.334C29.5662 28.334 30 27.1393 30 26.1375C30 24.1673 27.749 24.1673 26.6666 24.1673C26.3305 24.1673 25.4289 24.2666 24.2488 24.4644ZM12.5 31.6673C12.0239 31.6673 11.7016 31.4427 11.6666 31.3996C11.6666 30.8088 13.4285 29.9738 15.1327 29.1666C15.2409 29.1153 15.3508 29.064 15.4623 29.0111C14.2106 30.8259 12.9728 31.6673 12.5 31.6673ZM18.3334 16.7471C18.3334 15.0007 18.8754 15.0007 19.1667 15.0007C19.7559 15.0007 20.0001 15.0007 20.0001 16.6673C20.0001 17.0189 19.7657 17.8978 19.3368 19.2699C18.6824 18.2624 18.3334 17.399 18.3334 16.7471ZM18.9722 25.7038C19.0243 25.559 19.0748 25.4125 19.1236 25.2644C19.4328 24.3366 19.7112 23.5033 19.9594 22.753C20.3052 23.1338 20.678 23.5237 21.0776 23.9232C21.2338 24.0795 21.6212 24.431 22.1372 24.8712C21.11 25.0951 20.0171 25.3726 18.9722 25.7038ZM28.3334 26.1376C28.3334 26.512 28.3334 26.6673 27.5602 26.6723C27.3332 26.6234 26.8083 26.3142 26.1605 25.8731C26.3956 25.8471 26.569 25.8341 26.6666 25.8341C27.898 25.8341 28.2471 25.9545 28.3334 26.1376Z" fill="#192335"/>
</svg>
