<svg width="73" height="106" viewBox="0 0 73 106" fill="none" xmlns="http://www.w3.org/2000/svg">
<path fill-rule="evenodd" clip-rule="evenodd" d="M73 0.47609C71.0333 2.69826 68.0962 4.03066 65.6808 5.98682C49.3639 19.1456 32.9524 33.0153 19.9362 49.8158C27.4253 47.7702 36.2531 44.75 44.4553 42.5184C50.1618 41.0072 58.5482 39.4982 59.4383 46.2542C60.4157 52.9207 51.595 60.6536 48.4737 64.121C36.8788 76.7455 25.3783 88.7461 12.3502 100.481C10.2985 102.437 6.46656 106.173 3.52237 105.994C1.91924 105.904 0.216953 104.661 0.0445986 102.971C-0.403994 100.128 2.64172 97.0157 4.2354 94.9677C9.49339 88.2989 14.7584 81.1874 20.3729 75.4084C28.1336 67.3201 36.3357 59.4978 44.4553 51.586C36.9661 52.9984 28.764 57.7064 20.5618 58.4291C16.2789 58.7845 12.1826 57.4498 11.5546 53.9847C10.3929 48.0291 19.1358 39.583 22.1649 36.3839C31.2643 26.6925 41.7826 17.8909 52.3859 10.6006C57.8281 6.86718 63.9785 2.33341 70.0416 0.200692C70.6626 0.0217882 72.4522 -0.24424 72.9858 0.466665L73 0.47609Z" fill="#2F57EF"/>
</svg>
