<svg width="36" height="36" viewBox="0 0 36 36" fill="none" xmlns="http://www.w3.org/2000/svg">
<path d="M34.7919 7.37876L32.2684 7.37864V4.7664C32.2684 4.16835 31.8308 3.66023 31.2393 3.57174C31.136 3.55623 28.6776 3.19914 25.7172 3.7378C22.417 4.33829 19.785 5.81913 17.9999 8.05779C16.2147 5.81913 13.5827 4.33829 10.2826 3.7378C7.32216 3.19926 4.86374 3.55623 4.76059 3.57174C4.16908 3.66035 3.7315 4.16847 3.7315 4.7664V7.37864H1.208C0.540968 7.37864 0 7.91961 0 8.58676V31.3509C0 31.7421 0.189333 32.109 0.508241 32.3356C0.827149 32.5623 1.236 32.6205 1.60533 32.4918C1.69599 32.4604 10.7484 29.3709 17.4986 32.4499C17.8172 32.5953 18.1828 32.5953 18.5014 32.4499C25.2326 29.3797 34.3045 32.4606 34.3947 32.4918C34.5241 32.5369 34.6582 32.559 34.7918 32.559C35.0394 32.559 35.2845 32.4829 35.4918 32.3358C35.8107 32.1091 36 31.7422 36 31.351V8.58688C35.9999 7.91973 35.459 7.37876 34.7919 7.37876ZM2.41611 29.7346V9.79475H3.7315V25.8827C3.7315 26.2337 3.88508 26.5671 4.15065 26.7965C4.41623 27.026 4.76944 27.1289 5.11659 27.0776C5.18326 27.0679 10.4312 26.3474 14.2654 28.9781C9.54239 28.1704 4.81538 29.1046 2.41611 29.7346ZM16.7919 27.8886C15.1032 26.3628 12.9036 25.3311 10.2826 24.8542C9.0213 24.6246 7.85112 24.5577 6.91537 24.5577C6.63755 24.5577 6.38034 24.5637 6.14774 24.573V5.87573H6.14762C8.46943 5.77101 14.1175 6.01925 16.7919 10.5529V27.8886ZM19.2079 10.5531C21.8728 6.03876 27.5297 5.77925 29.8523 5.87877V24.573C28.8361 24.532 27.3529 24.5565 25.7172 24.8542C23.0963 25.3311 20.8967 26.3627 19.2079 27.8886V10.5531ZM21.7305 28.9788C25.5651 26.3466 30.8159 27.0678 30.8813 27.0775C31.2293 27.1297 31.5823 27.0274 31.8487 26.7981C32.1152 26.5685 32.2684 26.2345 32.2684 25.8827V9.79487H33.5838V29.7346C31.1838 29.1044 26.4548 28.1698 21.7305 28.9788Z" fill="#2F57EF"/>
</svg>
