<svg width="131" height="36" viewBox="0 0 131 36" fill="none" xmlns="http://www.w3.org/2000/svg">
<path d="M128.519 19.2478C128.059 17.558 126.566 16.4823 124.833 16.4823C123.252 16.4823 121.738 17.7112 121.409 19.2478H128.519ZM130.56 22.7152C129.638 24.9535 127.466 26.4676 125.03 26.4676C121.606 26.4676 118.863 23.7902 118.863 20.3446C118.863 16.8772 121.475 14.0902 124.964 14.0902C126.588 14.0902 128.212 14.8144 129.353 15.9776C130.517 17.2065 130.999 18.6988 130.999 20.3665L130.912 21.3102H121.431C121.782 22.9344 123.275 24.119 124.943 24.119C126.105 24.119 127.115 23.6804 127.773 22.7148H130.56M106.421 16.9429H104.907V14.4412H109.099V16.109C109.801 14.8142 111.118 14.1776 112.566 14.1776C113.839 14.1776 115.09 14.7046 115.946 15.6262C116.911 16.7016 116.933 17.7331 116.933 19.0716V23.6584H118.447V26.1601H112.742V23.6584H114.256V19.8616C114.256 19.1374 114.256 18.3914 113.795 17.7547C113.312 17.1185 112.522 16.8114 111.732 16.8114C110.92 16.8114 110.086 17.1405 109.603 17.7987C109.099 18.4568 109.099 19.4665 109.099 20.2568V23.6584H110.613V26.1601H104.907V23.6584H106.421V16.9428M102.581 13.322H99.9037V10.491H102.581V13.322ZM102.581 23.6584H104.095V26.1601H98.3674V23.6584H99.9037V16.9428H98.3894V14.4411H102.581V23.6582M78.3968 16.9426H76.8828V14.4409H80.8329V16.1965C81.5792 14.9676 82.7203 14.1555 84.2125 14.1555C85.8364 14.1555 87.1972 15.143 87.8553 16.6134C88.492 15.1212 90.072 14.1555 91.6959 14.1555C92.9688 14.1555 94.2198 14.6821 95.0754 15.6478C95.9973 16.7233 95.9973 17.8863 95.9973 19.2248V23.6581H97.5116V26.1598H91.8055V23.6581H93.3199V19.8834C93.3199 19.1151 93.32 18.4348 92.9689 17.7544C92.5299 17.1182 91.8055 16.7889 91.0597 16.7889C90.3355 16.7889 89.5452 17.0963 89.0845 17.6665C88.5358 18.3691 88.5358 19.0274 88.5358 19.8834V23.6581H90.05V26.1598H84.3441V23.6581H85.8586V20.0591C85.8586 19.3567 85.8586 18.479 85.5075 17.8645C85.1344 17.1624 84.3662 16.7891 83.5761 16.7891C82.8299 16.7891 82.1935 17.0525 81.7108 17.6452C81.118 18.3693 81.0742 19.1373 81.0742 20.0371V23.6582H82.5884V26.1599H76.8828V23.6582H78.3968V16.9426M69.6469 22.759C69.7347 23.8125 70.4369 24.5145 71.5343 24.5145C72.3463 24.5145 73.1361 23.9443 73.1361 23.0664C73.1361 21.9031 72.039 21.7057 71.1391 21.4643C69.0981 20.9377 66.8597 20.301 66.8597 17.7337C66.8597 15.4951 68.747 14.2004 70.8321 14.2004C71.8851 14.2004 72.8288 14.42 73.4872 15.2537V14.4418H75.4624V17.6239H72.8726C72.8288 16.7897 72.1924 16.2412 71.3586 16.2412C70.6344 16.2412 69.8664 16.6582 69.8664 17.4701C69.8664 18.5674 70.9417 18.8087 71.7975 19.0062C73.9041 19.489 76.1646 20.1476 76.1646 22.7811C76.1646 25.1511 74.1676 26.4677 71.9732 26.4677C70.7878 26.4677 69.7125 26.0948 68.9445 25.195V26.1604H66.9037V22.7589H69.6469M61.9644 20.2356C61.9644 18.3041 60.3624 16.7459 58.4312 16.7459C56.4343 16.7459 54.898 18.3921 54.898 20.367C54.898 22.2765 56.5001 23.8564 58.3874 23.8564C60.4062 23.8564 61.9644 22.2325 61.9644 20.2356ZM61.9206 24.5806C61.0646 25.8753 59.6822 26.468 58.1459 26.468C54.7881 26.468 52.133 23.681 52.133 20.367C52.133 16.9654 54.8542 14.1346 58.2776 14.1346C59.7918 14.1346 61.1086 14.8367 61.9206 16.1096V14.4418H66.1123V16.9435H64.6418V23.6591H66.1123V26.1608H61.9206V24.5808M43.8369 21.75C43.8589 22.7157 44.4515 23.703 45.5488 23.703C46.2072 23.703 46.69 23.3959 47.0193 22.8473C47.3263 22.2985 47.3263 21.4866 47.3263 20.8721V12.9939H45.6146V10.4919H52.0007V12.9939H50.311V21.2453C50.311 22.6499 50.2229 23.747 49.2357 24.8883C48.3578 25.8978 46.9314 26.4684 45.5706 26.4684C42.7616 26.4684 40.6107 24.603 40.7208 21.7502H43.8369" fill="#192335"/>
<path d="M17.0855 15.1109H19.8207L20.5002 14.1755V6.8479H16.4062V14.1761L17.0855 15.111" fill="#192335"/>
<path d="M17.8512 29.4005H18.9857V23.83H17.8512V29.4005ZM7.73616 21.9999L7.38575 20.9209L12.6832 19.2002L13.0334 20.2792L7.73631 21.9999M14.5715 13.5209L11.298 9.01437L12.2162 8.34737L15.4897 12.8542L14.5715 13.5209M22.3925 13.5623L21.4745 12.8954L24.7483 8.38858L25.6665 9.05527L22.3924 13.5624M29.1489 22.0676L23.8512 20.346L24.2017 19.2667L29.4991 20.9884L29.1489 22.0676M20.7386 15.7774L21.5842 18.3791L22.6838 18.7358L29.6528 16.4718L28.3878 12.5783L21.4183 14.843L20.7384 15.7775M21.2364 19.4579L19.0232 21.0656L19.0235 22.2214L23.3305 28.15L26.6429 25.7439L22.335 19.8151L21.2364 19.4579ZM17.8887 21.0662L15.6761 19.4579L14.5764 19.8158L10.2694 25.744L13.5812 28.1501L17.8888 22.2215V21.0662M15.3252 18.3791L16.1703 15.7779L15.4906 14.8424L8.52167 12.578L7.25651 16.4715L14.2267 18.7361L15.3254 18.379M18.4573 0.487305C8.72053 0.487305 0.798828 8.4075 0.798828 18.1427C0.798828 27.8816 8.72053 35.8042 18.4573 35.8042C28.1931 35.8042 36.1136 27.8816 36.1136 18.1427C36.1136 8.4075 28.1931 0.487305 18.4573 0.487305ZM18.4573 4.06221C26.2325 4.06221 32.5384 10.3654 32.5384 18.1427C32.5384 25.9228 26.2325 32.2287 18.4573 32.2287C10.679 32.2287 4.37434 25.9228 4.37434 18.1427C4.37434 10.3654 10.679 4.06221 18.4573 4.06221Z" fill="#192335"/>
</svg>
