<svg width="131" height="61" viewBox="0 0 131 61" fill="none" xmlns="http://www.w3.org/2000/svg">
<path d="M13.0375 14.6831C12.8708 14.1842 12.5817 13.7128 12.299 13.2726C11.9345 12.7 11.5261 12.1565 11.0774 11.6472C10.8351 11.3867 10.5043 10.9621 10.1397 10.8267C10.0745 10.8006 10.0251 10.7746 9.95343 10.7785C9.91435 10.7655 9.87789 10.7655 9.84923 10.7655L7.55703 10.1742C6.50077 9.86804 5.47903 9.4534 4.50813 8.93692C4.09137 8.71291 3.68111 8.47457 3.29691 8.20107L3.01559 7.99269C2.66785 7.52382 2.3123 7.00287 1.86949 6.62517L1.77832 6.57568C1.84735 6.95598 2.07136 7.30763 2.26672 7.63583C2.75121 8.45243 3.31775 9.22084 3.8908 9.97753C4.43259 10.6938 5.01085 11.3997 5.71415 11.9793C6.2898 12.4638 6.9449 12.8454 7.61303 13.1866L9.88831 14.2624C10.8625 14.6401 11.8523 14.937 12.8838 15.0959L12.7497 15.0751C12.8057 15.079 12.8591 15.0933 12.9112 15.1142C13.2211 15.2236 13.0935 14.8055 13.0544 14.6844L13.0375 14.6831Z" fill="#192335"/>
<path d="M10.3858 10.9934C10.2712 10.4802 10.0289 9.9814 9.79058 9.51645C9.4839 8.91036 9.12985 8.32942 8.73174 7.77906C8.5468 7.51597 8.33841 7.2581 8.10919 7.04581L7.87476 6.87259C7.16105 6.68635 6.40306 6.76449 5.68675 6.57565C5.06813 6.41132 4.47484 6.16331 3.92331 5.83849C3.60813 5.63402 3.30077 5.41392 3.01554 5.17037L2.80065 5.00627L2.76809 4.97501L2.59227 4.78877L2.57143 4.75881L1.95019 3.92268C1.56859 3.46684 1.16094 2.90681 0.629564 2.62029L0.720731 2.67238C0.686869 2.63722 0.646495 2.61117 0.599609 2.59033C0.600912 2.6294 0.612633 2.66587 0.620447 2.70364C0.629823 2.74568 0.643348 2.78669 0.660822 2.82607C0.830132 3.35353 1.0294 3.86798 1.27295 4.36289L1.73529 5.23939L1.83297 5.41391L2.36435 6.30345C2.84363 7.01976 3.34505 7.6918 3.92722 8.32736C4.48724 8.93949 5.10979 9.51905 5.80006 9.97879C6.45906 10.4164 7.15845 10.8253 7.91644 11.0624C8.64969 11.2929 9.42721 11.315 10.1826 11.4349C10.3194 11.5 10.3936 11.457 10.404 11.3046L10.3714 11.0181L10.3858 10.9934Z" fill="#192335"/>
<path d="M10.4072 11.0964C10.3968 10.5702 10.2613 10.0336 10.1207 9.52959C9.94093 8.8784 9.71692 8.23111 9.43951 7.61508C9.28973 7.28167 9.09568 6.78936 8.79092 6.55233C8.73491 6.50935 8.69584 6.47028 8.62812 6.45074C8.59165 6.4273 8.55909 6.41427 8.52914 6.40776L8.1801 6.19287L8.2895 6.25799L6.52085 5.16398C5.60136 4.55186 4.74569 3.86159 3.97207 3.07104C3.64126 2.73242 3.32088 2.38468 3.03435 2.00829L2.82857 1.72176C2.63582 1.17085 2.45088 0.565238 2.14091 0.0742365L2.06798 0C2.02109 0.382903 2.12919 0.786644 2.21775 1.15652C2.43916 2.08122 2.74913 2.98378 3.07082 3.87591C3.37427 4.72247 3.7155 5.56642 4.20129 6.32441C4.60503 6.95867 5.11817 7.5187 5.65476 8.04356L7.50676 9.73667C8.32336 10.3853 9.18033 10.9648 10.1194 11.4233L9.99823 11.3634C10.0503 11.3842 10.0972 11.4129 10.1415 11.4493C10.402 11.6447 10.4085 11.2097 10.4059 11.082L10.4072 11.0964Z" fill="#192335"/>
<path d="M15.824 17.8296C15.6065 17.3503 15.2665 16.9127 14.9383 16.5064C14.5124 15.9789 14.0488 15.4645 13.5448 15.0242C13.3099 14.805 13.0553 14.6079 12.7842 14.4356L12.5211 14.3144C11.7839 14.278 11.0598 14.5098 10.3201 14.4733C9.68153 14.4398 9.05057 14.3193 8.44461 14.1152C8.09243 13.9815 7.7492 13.8253 7.41702 13.6476L7.17869 13.5148L7.14222 13.4913L6.93383 13.3481L6.90779 13.322L6.12635 12.6318C5.65749 12.2632 5.14565 11.7982 4.56348 11.6159L4.66377 11.6498C4.6247 11.6211 4.57911 11.6042 4.52832 11.5938C4.53744 11.6328 4.55437 11.6641 4.5713 11.6979C4.59344 11.7461 4.61428 11.78 4.63902 11.8152C4.91253 12.297 5.21208 12.7568 5.5507 13.1918L6.18366 13.955L6.3139 14.1048L7.01719 14.8667C7.63322 15.4684 8.26227 16.0232 8.96166 16.5246C9.63499 17.0065 10.3643 17.4493 11.1367 17.7554C11.8712 18.0484 12.6396 18.3024 13.4289 18.3805C14.1934 18.4547 14.9605 18.3154 15.7237 18.2789C15.8708 18.3154 15.9347 18.2581 15.9151 18.107L15.824 17.8309V17.8296Z" fill="#192335"/>
<path d="M19.2533 21.4099C18.9902 20.954 18.6112 20.5503 18.2479 20.1765C17.7757 19.6883 17.2667 19.2373 16.7254 18.8272C16.4323 18.6058 16.026 18.2711 15.6444 18.2099C15.5754 18.1995 15.522 18.1838 15.4516 18.1995C15.4158 18.1958 15.3795 18.1989 15.3448 18.2086L14.9346 18.1878L15.0622 18.1917L12.9888 18.0875C11.887 17.9963 10.8034 17.8036 9.74326 17.4858C9.29133 17.3503 8.8407 17.1992 8.407 17.0078L8.08922 16.8593C7.65422 16.4686 7.20099 16.0297 6.69175 15.7497L6.59277 15.7197C6.72301 16.0779 7.02647 16.3787 7.28304 16.6601C7.92121 17.3633 8.63102 18.0015 9.34342 18.6267C10.0181 19.2193 10.724 19.7949 11.5184 20.226C12.1787 20.5842 12.8989 20.8277 13.6205 21.0283L16.0664 21.6274C17.1083 21.8006 18.1267 21.8944 19.1687 21.8423L19.0332 21.8488C19.0884 21.8418 19.1443 21.8445 19.1986 21.8566C19.5242 21.9022 19.3289 21.518 19.2507 21.4073L19.2533 21.4099Z" fill="#192335"/>
<path d="M11.2251 21.0102L11.6054 21.1899L12.0652 21.3788C13.2985 21.7643 14.6218 21.789 15.8838 21.5298L15.7145 21.5663C16.3203 21.4299 16.9154 21.2492 17.4948 21.0258C17.7683 20.9242 18.0991 21.1925 18.2971 21.3332C18.8181 21.6939 19.2635 22.1328 19.6907 22.5835C20.1179 23.0341 20.5281 23.5186 20.8589 24.0474C20.8641 24.0552 21.3356 24.7897 21.1194 24.8653C19.5227 25.4123 17.8608 25.6623 16.2094 25.2091C15.6236 25.0449 15.0559 24.8219 14.515 24.5436C13.6241 24.0903 12.8505 23.4717 12.1055 22.8114C11.5846 22.3503 11.061 21.8476 10.6312 21.3006C10.3968 21.0037 10.1402 20.6885 10.079 20.3108L10.0999 20.441C10.0842 20.3577 10.066 20.3004 10.0686 20.2235C10.0712 20.1584 10.7927 20.6924 10.7328 20.6429L11.2342 21.0232L11.2251 21.0102Z" fill="#192335"/>
<path d="M14.5047 25.5839L14.9176 25.6712L15.4086 25.7493C16.7109 25.8405 17.9899 25.5579 19.1594 25.0148L19.0032 25.089C19.5632 24.8207 20.0972 24.499 20.6116 24.1513C20.8525 23.9898 21.2368 24.1747 21.4621 24.2646C22.039 24.499 22.586 24.8194 23.1057 25.1606C23.6253 25.5019 24.1346 25.877 24.5774 26.3146C24.5839 26.3211 25.213 26.9267 25.0202 27.0504C23.5928 27.9517 22.0351 28.5794 20.3212 28.5221C19.7133 28.4977 19.1094 28.4122 18.5187 28.2668C17.5471 28.0324 16.651 27.6078 15.7706 27.139C15.1585 26.8134 14.5333 26.4409 13.9863 26.0085C13.692 25.7741 13.3677 25.5266 13.2205 25.1711L13.2674 25.2805C13.2336 25.2023 13.2023 25.1502 13.1867 25.076C13.1737 25.0135 13.9994 25.3625 13.929 25.3313L14.5047 25.5852V25.5839Z" fill="#192335"/>
<path d="M27.9893 28.5928C27.5543 28.2971 27.0385 28.0978 26.5462 27.922C25.9085 27.6888 25.2536 27.5055 24.5874 27.3737C24.2293 27.3034 23.7148 27.1784 23.345 27.2904C23.2772 27.3099 23.2238 27.3203 23.1678 27.3646C23.1288 27.3802 23.0988 27.3985 23.0767 27.4193L22.6859 27.5795L22.8032 27.5274L20.8926 28.3401C19.8611 28.7386 18.8022 29.0382 17.7095 29.2153C17.2433 29.2908 16.7718 29.3507 16.299 29.3677L15.95 29.3729C15.39 29.2127 14.7882 29.0134 14.2048 28.9822L14.1006 28.9991C14.3871 29.2596 14.7778 29.3898 15.1321 29.5435C16.0138 29.8951 16.9294 30.1634 17.845 30.4161C18.711 30.6544 19.598 30.8641 20.4992 30.9058C21.2507 30.9397 22.0035 30.8459 22.7419 30.7104L25.2165 30.1817C26.2193 29.8886 27.1857 29.5227 28.1013 29.0225L27.9841 29.0877C28.0308 29.0571 28.0823 29.0346 28.1365 29.0212C28.449 28.9197 28.0974 28.6644 27.9893 28.5915V28.5928Z" fill="#192335"/>
<path d="M19.8107 32.2654L20.2248 32.1912L20.7093 32.0779C21.9388 31.6741 23.0276 30.9291 23.9067 29.9849L23.7895 30.1125C24.2038 29.6499 24.5838 29.1576 24.9265 28.6395C25.0893 28.3986 25.5164 28.4247 25.7574 28.4247C26.3827 28.4342 27.0056 28.5049 27.6172 28.6356C28.2267 28.7568 28.8414 28.9117 29.4171 29.1488C29.4249 29.1527 30.2376 29.477 30.1022 29.6645C29.1202 31.0372 27.9115 32.2042 26.3031 32.7955C25.7352 33.0039 25.1348 33.1471 24.537 33.2357C23.5472 33.3842 22.5574 33.3269 21.5676 33.2253C20.8773 33.1536 20.1571 33.0468 19.489 32.8502C19.1282 32.746 18.7336 32.6379 18.464 32.3631L18.5486 32.4477C18.4874 32.3878 18.4392 32.3527 18.3976 32.2888C18.3611 32.2368 19.2571 32.2498 19.179 32.2459L19.8081 32.2641L19.8107 32.2654Z" fill="#192335"/>
<path d="M22.0499 35.0488L22.4537 34.9251L22.9225 34.7558C24.0947 34.2127 25.091 33.3414 25.8503 32.3021L25.7487 32.4427C26.1095 31.9374 26.4194 31.3982 26.7034 30.846C26.8362 30.5881 27.2634 30.5634 27.503 30.5334C28.1217 30.4592 28.7533 30.4761 29.3746 30.5243C29.9958 30.5725 30.6223 30.6545 31.224 30.8239C31.2318 30.8265 32.077 31.0531 31.9663 31.2536C31.1523 32.7319 30.0909 34.0343 28.5619 34.8092C28.0227 35.0697 27.4418 35.2963 26.8597 35.4552C25.8959 35.7182 24.9061 35.7808 23.9097 35.7938C23.2156 35.8016 22.4875 35.7808 21.7999 35.6635C21.4287 35.601 21.0262 35.5411 20.7241 35.3015C20.7553 35.3275 20.698 35.2937 20.6499 35.2364C20.6082 35.1869 21.5003 35.0957 21.4222 35.1009L22.0499 35.0449V35.0488Z" fill="#192335"/>
<path d="M33.3084 31.8317C32.7705 31.7848 32.2183 31.8577 31.7 31.9333C31.029 32.0291 30.3664 32.1759 29.7177 32.3722C29.3713 32.4764 28.8621 32.6092 28.6081 32.871C28.5612 32.9192 28.5208 32.9517 28.4974 33.0143C28.4713 33.0455 28.4583 33.0742 28.4492 33.1015L28.2148 33.4089L28.2851 33.3125L27.0999 34.8754C26.4372 35.686 25.6858 36.4199 24.8598 37.0634C24.5016 37.3408 24.1331 37.6065 23.7371 37.8357L23.4376 37.9998C22.8684 38.1235 22.2433 38.2316 21.7315 38.4726L21.6533 38.5338C22.044 38.6198 22.4569 38.5598 22.8385 38.5156C23.7892 38.4049 24.7231 38.2082 25.6465 37.9998C26.5217 37.8018 27.3969 37.57 28.1913 37.1923C28.8555 36.8771 29.4468 36.4539 30.0016 36.0032L31.8172 34.4365C32.5113 33.7332 33.1378 32.9856 33.6444 32.1495L33.5793 32.2576C33.6028 32.2107 33.634 32.169 33.6731 32.1325C33.8841 31.9046 33.4387 31.8538 33.3084 31.8421V31.8317Z" fill="#192335"/>
<path d="M37.9648 31.3799C37.9128 30.885 37.8007 30.3992 37.6262 29.9434C37.483 29.5696 37.3397 29.1411 37.048 28.8454C37.074 28.8975 37.0675 28.891 37.0375 28.835C36.8292 28.8181 36.6338 28.8871 36.4567 29.0369L36.0008 29.3716C35.3679 29.8848 34.8105 30.4682 34.2973 31.0556C33.7842 31.643 33.2945 32.2616 32.922 32.9024C32.879 32.9805 32.3945 33.7594 32.6837 33.8271C32.9181 33.8831 33.0327 34.0485 33.1265 34.2217C33.4937 34.9641 33.7516 35.7846 33.835 36.6259C33.9457 37.7551 33.8089 38.922 33.6005 40.0955L32.9884 42.9399L32.7852 43.6432L32.681 43.9402L32.6094 44.0522L31.6587 45.6736C31.6587 45.6736 31.3305 46.2337 31.6391 45.9901C32.1992 45.5473 32.5951 44.9508 32.991 44.4272C33.7503 43.4218 34.4106 42.376 35.0527 41.3328C35.5147 40.5958 35.9154 39.8222 36.2509 39.0197L36.5895 38.2083L36.962 37.199L37.4361 35.5449C37.7877 34.1579 38.1094 32.7148 37.9648 31.3812V31.3799Z" fill="#192335"/>
<path d="M46.9022 22.4166L46.9569 22.5078C46.785 22.2122 46.4568 22.0429 46.1585 21.8827C45.605 21.5831 44.9838 21.3513 44.3769 21.1572C43.5082 20.8785 42.6291 20.6428 41.6965 20.5894C41.125 20.5536 40.5514 20.5741 39.9839 20.6506C38.3741 20.8746 36.9884 21.6886 35.729 22.7266C35.716 22.7357 35.7186 22.7501 35.7134 22.7631C35.2393 23.1642 34.7952 23.6266 34.3849 24.0915C33.7168 24.8534 33.0877 25.644 32.6241 26.5595C32.3723 27.0543 32.1636 27.5697 32.0002 28.1003C31.8257 27.7708 31.6173 27.4491 31.3621 27.2667L29.9321 26.2509C25.8556 23.4729 21.7726 20.7157 18.1037 17.3998L17.799 17.1185L17.5724 16.9075L16.9368 16.3006C16.5174 15.893 16.1033 15.4801 15.6995 15.0542C14.853 14.166 14.022 13.2504 13.2276 12.3114C12.8076 11.8174 12.4002 11.3128 12.0059 10.798L11.8054 10.531L11.7559 10.4633C11.5905 10.2289 11.4342 9.98923 11.2779 9.74959L10.9237 9.19216L10.8195 9.00983C10.4131 8.04606 10.6502 8.65558 10.6241 8.58786C10.2592 7.64977 9.84218 6.73277 9.37512 5.84111C9.11464 5.34881 8.81249 4.69241 8.37749 4.31341C7.99979 3.98521 8.1691 4.78878 8.17301 4.83437L8.17692 4.86693C8.17517 5.04767 8.18649 5.22831 8.21078 5.40742C8.25636 5.70697 8.30586 6.00652 8.37358 6.30346C8.58847 7.24639 8.8776 8.14244 9.18367 9.06062C9.68378 10.5584 10.4014 11.9936 11.132 13.3872C12.4657 15.9294 14.1497 18.4066 16.0811 20.5243C17.8133 22.4127 19.7122 24.1527 21.6944 25.7768C23.6962 27.4178 25.7709 28.9807 27.8808 30.4915C27.8639 30.4915 27.8912 30.5045 27.9355 30.5305L28.5763 30.9864C29.2769 31.5881 30.1678 32.7472 29.6377 34.4924L29.1207 35.5239L28.8993 35.9902C28.8706 36.037 28.8602 36.0644 28.8602 36.0722C28.6655 36.4843 28.4792 36.9003 28.3015 37.3199C27.7631 38 27.1093 38.5802 26.37 39.0338C26.1903 39.1328 26.0053 39.2266 25.8191 39.3113C25.6889 39.3673 25.5586 39.4154 25.4284 39.4714C25.3463 39.5066 25.4232 39.4845 24.8098 39.5861C24.8879 39.573 24.0075 39.7463 24.0544 39.7918C24.1091 39.8439 24.1638 39.87 24.2367 39.9156L24.1364 39.8504C24.4581 40.0614 24.8658 40.0849 25.2408 40.1109C25.935 40.163 26.6735 40.1161 27.3507 40.0419C27.0994 40.8598 26.9144 41.7037 26.7777 42.5464L26.6865 43.1194C26.1681 43.8292 25.6146 44.513 24.9934 45.146C24.4633 45.6891 23.9085 46.2087 23.3263 46.6958C23.0333 46.9563 22.735 47.1842 22.4303 47.416L22.0109 47.7286L21.7843 47.8914C21.1357 48.3394 20.4858 48.751 19.8177 49.1287C19.4843 49.3175 19.1483 49.5025 18.8044 49.6718L18.2444 49.9362L18.0451 50.0273C18.036 50.0312 18.0321 50.0338 18.0191 50.0403C17.3397 50.3298 16.6465 50.5854 15.9418 50.8062L15.7256 50.8674L15.2437 50.9937L14.7644 51.1109L14.599 51.15C14.052 51.2581 13.4855 51.3662 12.9775 51.6058C12.8473 51.667 12.4084 51.8989 12.7379 52.0708C13.1234 52.2726 13.7069 52.2401 14.1184 52.2362C14.8731 52.2183 15.6254 52.1438 16.369 52.0135C18.837 51.6097 21.2594 50.8153 23.5191 49.7082L22.946 50.2552C22.6009 50.5717 22.2493 50.883 21.8885 51.1825L21.6645 51.3688L21.1605 51.7595C20.8218 52.0135 20.4767 52.2544 20.1264 52.4888L19.8945 52.6386L19.3475 52.9733L19.1131 53.1101L18.5713 53.4005L18.5166 53.4266L18.0412 53.648L17.9722 53.6792L17.5763 53.8381L16.3598 54.1598L15.9691 54.2575C15.9301 54.264 15.8858 54.2705 15.8363 54.2835C15.0392 54.4203 14.2448 54.8045 13.5337 55.1561C12.9137 55.4596 12.2964 55.7943 11.7364 56.2007C11.7103 56.2176 11.6843 56.2397 11.6608 56.2554C11.6374 56.271 11.6048 56.2879 11.5788 56.3074C11.4668 56.383 10.9067 56.6956 10.9276 56.9261C10.9497 57.1644 13.3839 56.5796 13.7733 56.4781C17.2116 55.5794 20.4897 54.0165 23.493 52.0942C23.3341 52.3365 23.17 52.5761 23.002 52.8131L22.7871 53.1036L22.3938 53.6076L22.2206 53.8212L21.8299 54.2809L21.7986 54.3148L21.4079 54.7016L21.3506 54.7589L21.0419 55.0389L20 55.7683L19.6549 56.0027C19.6175 56.0242 19.581 56.0472 19.5455 56.0717C18.8461 56.4794 18.2366 57.1201 17.6909 57.6971C17.2168 58.1985 16.7571 58.7286 16.3755 59.3055C16.3585 59.3316 16.3403 59.3576 16.3234 59.3863C16.3064 59.415 16.2843 59.4358 16.2648 59.4618C16.1866 59.5725 15.7699 60.0609 15.874 60.2693C15.9782 60.4842 18.0529 59.0841 18.3825 58.8367C21.9445 56.3283 24.9296 52.9759 27.3377 49.3553L27.4289 49.2185C29.5387 47.4772 31.4428 45.4755 32.9289 43.1885C33.2974 42.8238 33.5709 42.5034 33.6321 42.3055C34.648 38.9687 34.7691 37.3954 34.5139 36.067C34.6858 35.9862 34.8655 35.9368 35.0609 35.9732C35.3943 36.0383 35.5532 35.0147 35.5727 34.9157C35.6185 34.6625 35.6533 34.4074 35.6769 34.1512C36.0184 33.8859 36.3369 33.5922 36.6289 33.2734C36.681 33.2174 37.2124 32.6573 37.0275 32.4789C36.8764 32.3356 36.836 32.1325 36.8139 31.9319C36.7335 31.0731 36.7664 30.2074 36.9116 29.3571C37.1134 28.2344 37.4976 27.1691 37.9378 26.1272L38.2765 25.3522C38.5915 25.3677 38.9065 25.3194 39.2025 25.2103C39.5353 25.0893 39.8361 24.8937 40.0816 24.6385C40.0985 24.6281 40.1167 24.619 40.1311 24.606C40.5635 24.2257 41.0128 23.8675 41.4921 23.5458C42.465 22.9285 43.5564 22.5039 44.6829 22.3567C44.8913 22.3385 45.1023 22.3242 45.312 22.3242C45.4422 22.3255 45.5751 22.3346 45.7066 22.3372C45.79 22.3385 45.717 22.3294 46.2705 22.4713C46.2015 22.4531 47.009 22.6341 46.9895 22.5807C46.9673 22.5156 46.9322 22.4739 46.8931 22.4114L46.9022 22.4166ZM16.0525 54.2588C16.0303 54.2601 16.0004 54.264 15.9743 54.2679C16.2088 54.208 16.1567 54.2379 16.0525 54.2588ZM19.2225 53.0645C19.3527 52.9929 19.4908 52.9108 19.2225 53.0645V53.0645ZM21.697 51.3688C21.7882 51.2972 22.0591 51.0731 21.697 51.3688V51.3688ZM19.7591 55.9714C19.7382 55.9792 19.7135 55.9936 19.6901 56.0079C19.8906 55.8698 19.8502 55.9167 19.7591 55.9714ZM22.2883 53.7678C22.3925 53.6467 22.5332 53.4708 22.2883 53.7678V53.7678Z" fill="#192335"/>
<path d="M55.0258 30.2925H56.7215V42.8345H55.0258V30.2925ZM60.1872 22.3479H61.8829V39.4939C61.8829 41.1401 62.6305 41.3888 63.2791 41.3888C63.5044 41.3888 63.7024 41.3628 63.7024 41.3628V42.884C63.7024 42.884 63.4028 42.9335 63.0798 42.9335C62.0314 42.9335 60.1885 42.6105 60.1885 39.8664V22.3609L60.1872 22.3479ZM65.8461 22.3479H67.5288V39.4939C67.5288 41.1401 68.2777 41.3888 68.9249 41.3888C69.149 41.3888 69.3482 41.3628 69.3482 41.3628V42.884C69.3482 42.884 69.0487 42.9335 68.7231 42.9335C67.6759 42.9335 65.8318 42.6105 65.8318 39.8664L65.8461 22.3479ZM71.4568 30.2925H73.1525V37.8229C73.1525 39.7934 73.452 41.5386 75.8706 41.5386C78.7385 41.5386 80.5097 39.0198 80.5097 36.303V30.2925H82.2054V42.8345H80.5592V40.9525C80.5592 40.4029 80.6087 39.9549 80.6087 39.9549H80.5592C80.134 40.901 79.4437 41.7036 78.5718 42.2655C77.6999 42.8274 76.6838 43.1246 75.6466 43.121C72.7032 43.121 71.4581 41.5256 71.4581 38.2579V30.2782L71.4568 30.2925ZM85.5434 30.2925H87.2144V32.164C87.2144 32.711 87.1649 33.1617 87.1649 33.1617H87.2144C87.8135 31.4659 89.8062 29.9942 91.7519 29.9942C94.0702 29.9942 95.2684 31.0661 95.6422 33.1369H95.6917C96.365 31.4412 98.1858 29.9942 100.305 29.9942C103.347 29.9942 104.47 31.7655 104.47 34.8574V42.8371H102.774V35.2832C102.774 33.2385 102.351 31.5428 100.056 31.5428C98.135 31.5428 96.5656 33.2398 96.0915 35.0853C95.917 35.6349 95.8662 36.2314 95.8662 36.906V42.8397H94.1705V35.2858C94.1705 33.3909 93.91 31.5454 91.5266 31.5454C89.4819 31.5454 87.9359 33.3166 87.4111 35.2364C87.2893 35.7849 87.2307 36.3455 87.2365 36.9073V42.841H85.5408V30.299L85.5434 30.2925ZM113.594 29.9929C117.261 29.9929 120.227 32.7866 120.227 36.501C120.227 40.2779 117.258 43.1341 113.594 43.1341C109.931 43.1341 106.961 40.2909 106.961 36.501C106.961 32.7853 109.931 29.9929 113.594 29.9929ZM113.594 41.6142C116.288 41.6142 118.481 39.4196 118.481 36.5023C118.481 33.6592 116.288 31.5532 113.594 31.5532C110.901 31.5532 108.708 33.6722 108.708 36.5023C108.708 39.4196 110.902 41.6142 113.594 41.6142ZM122.794 40.0943C122.794 40.0943 124.191 41.6155 126.535 41.6155C127.882 41.6155 129.054 40.9421 129.054 39.6202C129.054 36.8774 122.294 37.5494 122.294 33.4599C122.294 31.2159 124.313 29.9929 126.584 29.9929C129.228 29.9929 130.449 31.3644 130.449 31.3644L129.676 32.6615C129.676 32.6615 128.604 31.5154 126.534 31.5154C125.261 31.5154 124.04 32.0624 124.04 33.4599C124.04 36.2275 130.799 35.4786 130.799 39.6202C130.799 41.665 129.028 43.1367 126.509 43.1367C123.468 43.1367 121.872 41.3159 121.872 41.3159L122.794 40.0943ZM55.8724 24.8224C55.1496 24.8224 54.5635 25.4085 54.5635 26.1313C54.5635 26.8542 55.1496 27.4402 55.8724 27.4402C56.5952 27.4402 57.1813 26.8542 57.1813 26.1313C57.1813 25.4085 56.5952 24.8224 55.8724 24.8224Z" fill="#192335"/>
</svg>
