<svg width="131" height="34" viewBox="0 0 131 34" fill="none" xmlns="http://www.w3.org/2000/svg">
<path d="M46.8352 10.8481L46.2966 12.9473L45.097 16.5451H48.5757L47.376 12.9473C47.1468 12.2277 46.8375 10.8481 46.8375 10.8481H46.8352ZM49.1726 18.5251H44.5092L43.3691 21.9442H40.8506L45.5885 8.57024H48.107L52.7854 21.9442H50.2669L49.1726 18.5251ZM58.1719 20.1441C59.4323 20.1441 60.5712 19.2446 60.5712 17.0848C60.5712 15.5952 59.7921 14.1458 58.1719 14.1458C56.8519 14.1458 55.7725 15.2251 55.7725 17.1444C55.7725 18.9433 56.8038 20.143 58.1719 20.143M57.7525 12.1062C59.8516 12.1062 60.5116 13.3666 60.5116 13.3666V8.56909H62.911V21.943H60.6193V20.5635C60.6193 20.5635 59.7794 22.1825 57.6207 22.1825C55.0426 22.1825 53.3629 20.143 53.3629 17.1444C53.3629 14.085 55.1618 12.1062 57.7399 12.1062M68.4876 20.324C69.748 20.324 70.6464 18.9444 70.6464 17.8055V17.5763H70.227C68.9666 17.5763 66.9889 17.7562 66.9889 19.0659C67.0485 19.6652 67.5274 20.3263 68.4785 20.3263M70.3347 15.8851H70.6945V15.7648C70.6945 14.5044 69.9153 14.085 68.8348 14.085C67.4553 14.085 66.196 14.9845 66.196 14.9845L65.2965 13.2452C65.2965 13.2452 66.7861 12.0455 69.0754 12.0455C71.5939 12.0455 73.0342 13.4251 73.0342 15.884V21.8812H70.8285V20.4455C70.8285 20.4455 70.109 22.1252 67.8895 22.1252C66.1502 22.1252 64.6514 21.0459 64.6514 19.1266C64.6514 16.128 68.7901 15.8886 70.3496 15.8886M79.5241 20.1441C80.8441 20.1441 81.9235 19.0648 81.9235 17.1455C81.9235 15.3466 80.9644 14.1469 79.5241 14.1469C78.2637 14.1469 77.1248 15.0464 77.1248 17.2062C77.1844 18.6958 77.9647 20.1453 79.5241 20.1453V20.1441ZM74.8458 12.3468H77.0045V13.7264C77.0045 13.7264 77.8444 12.1074 80.0638 12.1074C82.6419 12.1074 84.3217 14.1469 84.3217 17.1455C84.3217 20.2048 82.462 22.1837 79.9446 22.1837C78.0254 22.1837 77.1855 20.8637 77.1855 20.8637C77.1845 21.1447 77.2044 21.4255 77.2451 21.7036V25.7219H74.8458V12.3468Z" fill="#192335"/>
<path d="M86.6598 14.3864H85.3994V12.4672H86.6598V9.69775H88.9973V12.4569H91.156V14.3761H88.9973V18.0943C88.9973 19.7133 90.2577 19.8932 90.9165 19.8932H91.3359V21.9923C91.3359 21.9923 91.0357 22.0519 90.6163 22.0519C89.2963 22.0519 86.6575 21.6921 86.6575 18.4541L86.6598 14.3864Z" fill="#192335"/>
<path d="M96.3158 20.324C97.5762 20.324 98.4745 18.9444 98.4745 17.8055V17.5763H98.0551C96.7947 17.5763 94.8171 17.7562 94.8171 19.0659C94.8766 19.6652 95.2983 20.3263 96.3066 20.3263M98.1663 15.8886H98.4665V15.7682C98.4665 14.5079 97.6873 14.0885 96.6068 14.0885C95.2273 14.0885 93.968 14.9879 93.968 14.9879L93.0915 13.2497C93.0915 13.2497 94.581 12.0501 96.8704 12.0501C99.3889 12.0501 100.829 13.4296 100.829 15.8886V21.8858H98.6097V20.4455C98.6097 20.4455 97.8901 22.1252 95.6707 22.1252C93.9313 22.1252 92.4326 21.0459 92.4326 19.1266C92.4326 16.128 96.5713 15.8886 98.1903 15.8886M101.364 12.3365H103.883L105.862 18.2741C106.041 18.8127 106.162 19.7133 106.221 19.7133L106.581 18.2741L108.56 12.3365H111.078L107.659 21.9327H104.781L101.364 12.3365ZM112.341 12.348H114.74V21.9442H112.341V12.348ZM112.341 8.56909H114.679V10.6682H112.341V8.56909ZM117.018 19.0648C117.018 19.0648 118.098 20.1441 119.657 20.1441C120.317 20.1441 120.918 19.8439 120.918 19.2447C120.918 17.8055 116.239 17.9843 116.239 14.9249C116.239 13.126 117.858 12.1062 119.898 12.1062C122.057 12.1062 123.136 13.1856 123.136 13.1856L122.236 14.9845C122.236 14.9845 121.337 14.1446 119.899 14.1446C119.3 14.1446 118.639 14.3738 118.639 15.0441C118.639 16.4237 123.317 16.2438 123.317 19.3019C123.317 20.921 121.937 22.1802 119.658 22.1802C117.259 22.1802 115.94 20.7411 115.94 20.7411L117.018 19.0648Z" fill="#192335"/>
<path d="M125.523 14.3864H124.263V12.4672H125.523V9.69775H127.861V12.4569H130.019V14.3761H127.861V18.0943C127.861 19.7133 129.121 19.8932 129.78 19.8932H130.199V21.9923C130.199 21.9923 129.899 22.0519 129.48 22.0519C128.16 22.0519 125.521 21.6921 125.521 18.4541L125.523 14.3864Z" fill="#192335"/>
<path d="M21.1391 26.1496C21.1391 21.9021 24.5365 18.5047 28.784 18.5047C33.0315 18.5047 36.4289 21.9021 36.4289 26.1496C36.4289 30.3972 33.0315 33.7945 28.784 33.7945C24.5365 33.8793 21.1391 30.3972 21.1391 26.1496ZM22.2426 1.51689C19.9486 0.15795 17.0612 -0.0116316 14.5977 1.3473C13.3463 2.03175 12.3155 3.05811 11.6257 4.30651C10.9359 5.5549 10.6155 6.97381 10.7019 8.3975C10.621 10.6057 10.009 12.7619 8.91788 14.6834C7.79506 16.5707 6.21839 18.1473 4.33118 19.2701C1.78289 20.5443 0.0836445 23.0926 0 26.0648C0.00474399 27.4179 0.359189 28.7467 1.02893 29.9224C1.69868 31.0981 2.66098 32.0806 3.82244 32.7747C4.98587 33.4699 6.3099 33.851 7.66487 33.8807C9.01984 33.9104 10.3593 33.5878 11.5521 32.9443C12.8035 32.2599 13.8343 31.2335 14.5241 29.9851C15.2139 28.7367 15.5343 27.3178 15.4479 25.8941C15.5288 23.6859 16.1408 21.5297 17.2319 19.6082C18.3547 17.7209 19.9314 16.1443 21.8186 15.0215C24.3669 13.7473 26.0661 11.199 26.1498 8.22678C26.1498 5.42411 24.6213 2.87582 22.3273 1.60168L22.2426 1.51689Z" fill="#192335"/>
</svg>
