<svg width="131" height="32" viewBox="0 0 131 32" fill="none" xmlns="http://www.w3.org/2000/svg">
<path d="M19.8176 26.1459C19.8176 26.1459 13.7086 17.4437 18.5329 8.83676C22.2304 2.63002 29.5564 -0.421957 36.569 1.32275C39.8404 2.36556 38.5569 7.98822 38.5569 9.36945C38.5068 9.96355 38.5569 10.5602 38.7023 11.1392C38.884 11.6456 39.3791 11.9715 39.9143 11.9389C40.4692 11.8542 41.0193 11.7408 41.5625 11.5992C41.4869 15.2243 40.14 18.7077 37.7572 21.4407C33.8793 25.5142 31.261 23.4775 27.8179 26.4104C24.3749 29.3433 21.4671 33.0533 22.5337 27.5008C25.9517 9.78181 35.3808 3.26047 32.2298 5.36991C23.0927 11.7935 19.8189 26.1434 19.8189 26.1434L19.8176 26.1459Z" fill="#192335"/>
<path d="M11.5738 15.1651C10.4663 11.8847 8.51912 8.95146 5.92603 6.65721C9.05446 8.48463 11.6139 11.1443 13.321 14.3404L14.0229 15.649C14.2261 13.1009 14.9609 10.6236 16.1799 8.37684C14.3064 6.65086 12.0746 5.36033 9.64405 4.59762C7.21355 3.83491 4.64451 3.61886 2.12077 3.96494C2.83895 4.89245 3.12974 6.08316 2.92042 7.23627C2.50681 9.07874 -2.26857 14.7503 2.50681 20.497C5.52369 23.9476 8.91158 27.0522 12.6153 29.757C13.3871 24.8768 13.0304 19.8847 11.5725 15.1639L11.5738 15.1651Z" fill="#192335"/>
<path d="M17.5022 6.48691C15.7558 5.20594 13.7687 4.29066 11.6602 3.79591C14.0238 2.44876 16.6968 1.73872 19.4173 1.73535C19.2481 2.6804 19.5389 3.18927 21.0417 3.67433C19.7933 4.52176 18.6102 5.4615 17.5022 6.48566V6.48691ZM12.7393 31.4542C12.7393 31.4542 2.65463 25.3215 0.619141 20.5711C1.66195 24.6923 1.44386 29.1518 12.7393 31.4555V31.4542ZM26.5315 30.3638C26.5315 30.3638 29.5371 27.115 30.798 27.115C32.0589 27.115 35.6461 26.0722 35.6461 26.0722C35.6461 26.0722 33.6344 30.0229 26.5315 30.3625V30.3638ZM56.5287 22.5364L52.0491 15.3232L50.2568 17.8964V22.5364H47.399V5.59701H50.2568V13.7014L55.7252 5.59701H58.979L53.9429 13.0208L59.9441 22.5465L56.5287 22.5364ZM67.1824 21.2856C66.8709 21.7644 66.416 22.1325 65.8826 22.3372C65.2708 22.6079 64.609 22.7472 63.9399 22.7458C62.8661 22.7998 61.8123 22.441 60.9945 21.7431C60.6233 21.3742 60.3344 20.931 60.1467 20.4426C59.959 19.9542 59.8767 19.4316 59.9053 18.9092C59.8763 18.2668 60.0003 17.6268 60.267 17.0417C60.5337 16.4566 60.9355 15.9433 61.4394 15.5438C62.7097 14.651 64.245 14.215 65.7949 14.3068C66.1797 14.3155 66.5632 14.3744 66.933 14.4797C66.933 13.0199 66.0585 12.2901 64.3096 12.2901C63.4124 12.2591 62.5209 12.4458 61.7114 12.834L61.1198 10.6318C62.1737 10.1306 63.3309 9.88453 64.4977 9.91366C65.9265 9.78832 67.3516 10.2207 68.4458 11.1507C69.2705 11.9755 69.6829 13.6049 69.6829 16.0389V18.6873C69.6829 20.333 69.9925 21.3721 70.6229 21.7932C70.4726 22.1318 70.2045 22.4044 69.8684 22.5603C69.5614 22.6624 69.2394 22.7124 68.9158 22.7082C68.5122 22.7031 68.1262 22.5327 67.8504 22.2381C67.5558 21.9803 67.3305 21.6529 67.1949 21.2856H67.1824ZM66.9355 16.6944C66.5908 16.6105 66.2386 16.5616 65.8826 16.5465C63.7135 16.5465 62.6289 17.2931 62.6289 18.7863C62.6289 19.8918 63.2388 20.4487 64.4588 20.4571C66.1083 20.4571 66.933 19.591 66.933 17.8588L66.9355 16.6944ZM74.1249 21.8559L73.5057 22.7708H71.9716V5.54688L74.729 4.86629V10.6318C75.4309 10.1731 76.2531 9.92995 77.0929 9.92619C77.8689 9.89556 78.6424 10.0334 79.3601 10.3303C80.0778 10.6271 80.7227 11.0759 81.2503 11.6458C82.3316 12.8473 82.9002 14.4239 82.8346 16.0389C82.9401 17.8306 82.3708 19.5968 81.2391 20.9898C80.699 21.593 80.0311 22.068 79.2841 22.3803C78.5371 22.6925 77.7298 22.8341 76.9212 22.7946C75.9134 22.8047 74.932 22.4725 74.1387 21.8546L74.1249 21.8559ZM74.7064 13.1073V19.5534C74.9004 19.7984 75.1493 19.9944 75.433 20.1254C75.7167 20.2565 76.0273 20.319 76.3396 20.3079C77.3799 20.4182 78.4164 20.0548 79.1597 19.3052C79.7898 18.3705 80.0821 17.2488 79.9882 16.1254C79.9882 13.6504 78.8455 12.4129 76.5602 12.4129C75.8758 12.3577 75.2015 12.6072 74.7177 13.0935L74.7064 13.1073ZM86.7577 21.8559L86.1385 22.7708H84.5918V5.54688L87.3367 4.86629V10.6318C88.0469 10.169 88.8768 9.9237 89.7244 9.92619C91.2987 9.86352 92.8228 10.4902 93.8944 11.6458C94.9757 12.8473 95.5443 14.4239 95.4787 16.0389C95.5827 17.8313 95.015 19.596 93.8832 20.9898C93.3426 21.5923 92.6746 22.0669 91.9277 22.3791C91.1808 22.6912 90.3738 22.8332 89.5653 22.7946C88.5625 22.8097 87.5599 22.4775 86.7577 21.8546V21.8559ZM87.3392 13.1073V19.5534C87.5332 19.7984 87.7822 19.9944 88.0658 20.1254C88.3495 20.2565 88.6601 20.319 88.9724 20.3079C90.0127 20.4182 91.0493 20.0548 91.7925 19.3052C92.4226 18.3705 92.7149 17.2488 92.621 16.1254C92.621 13.6504 91.4783 12.4129 89.193 12.4129C88.8528 12.3827 88.51 12.4281 88.1894 12.5457C87.8687 12.6634 87.578 12.8504 87.338 13.0935L87.3392 13.1073ZM104.005 21.2856C103.694 21.7644 103.239 22.1325 102.706 22.3372C102.094 22.6083 101.432 22.7475 100.763 22.7458C99.6727 22.8089 98.5999 22.4498 97.7674 21.7431C97.3963 21.3742 97.1074 20.931 96.9196 20.4426C96.7319 19.9542 96.6496 19.4316 96.6782 18.9092C96.6492 18.2668 96.7732 17.6268 97.0399 17.0417C97.3066 16.4566 97.7084 15.9433 98.2123 15.5438C99.483 14.6519 101.018 14.216 102.568 14.3068C102.953 14.3165 103.335 14.3746 103.706 14.4797C103.706 13.0199 102.831 12.2901 101.083 12.2901C100.19 12.2617 99.3027 12.4482 98.4968 12.834L97.9027 10.6318C98.9567 10.1306 100.114 9.88453 101.281 9.91366C101.988 9.84396 102.702 9.91759 103.381 10.1301C104.059 10.3427 104.688 10.6898 105.229 11.1507C106.053 11.9755 106.466 13.6049 106.466 16.0389V18.6873C106.466 20.333 106.775 21.3721 107.406 21.7932C107.255 22.1316 106.987 22.4036 106.651 22.5603C106.344 22.6627 106.022 22.7127 105.699 22.7082C105.295 22.7019 104.912 22.5327 104.633 22.2381C104.348 21.9771 104.132 21.65 104.003 21.2856H104.005ZM103.733 16.6944C103.388 16.6101 103.036 16.5605 102.681 16.5465C100.511 16.5465 99.4269 17.2931 99.4269 18.7863C99.4269 19.8918 100.037 20.4487 101.257 20.4571C102.906 20.4571 103.731 19.591 103.731 17.8588L103.733 16.6944ZM108.113 25.7401L109.845 23.4878C110.505 24.1536 111.349 24.6062 112.269 24.7872C113.189 24.9682 114.142 24.8692 115.005 24.503C115.22 24.4306 115.409 24.295 115.545 24.1139C115.682 23.9327 115.761 23.7145 115.772 23.4878C115.772 22.7583 115.203 22.3848 114.065 22.3848C113.605 22.3952 113.147 22.4325 112.691 22.4963C112.236 22.559 111.776 22.5966 111.318 22.6217C109.429 22.6217 108.485 21.9081 108.485 20.4809C108.49 20.0258 108.657 19.5873 108.955 19.2438C109.248 18.871 109.625 18.574 110.057 18.3777C109.412 17.9605 108.886 17.3833 108.53 16.7024C108.174 16.0215 108.001 15.2601 108.026 14.4923C107.991 13.2464 108.496 12.0482 109.413 11.2009C109.872 10.7683 110.412 10.4308 111.002 10.2077C111.593 9.98465 112.221 9.88046 112.852 9.90112C113.757 9.87605 114.653 10.0891 115.45 10.5203L116.528 9.19672L118.433 11.0141L117.122 12.0168C117.606 12.7915 117.855 13.6894 117.84 14.6025C117.868 15.2195 117.773 15.8357 117.561 16.4156C117.348 16.9954 117.023 17.5273 116.603 17.9804C115.792 18.8101 114.669 19.2589 113.51 19.2175C113.246 19.2325 112.982 19.2325 112.718 19.2175L112.26 19.1548C112.058 19.2156 111.863 19.2984 111.679 19.4017C111.333 19.5622 111.171 19.7364 111.171 19.9219C111.171 20.1074 111.43 20.3794 111.926 20.3794C112.309 20.3568 112.678 20.2992 113.064 20.2064C113.514 20.1024 113.975 20.0444 114.437 20.0334C117.111 20.0334 118.448 21.1636 118.448 23.4238C118.461 24.0125 118.319 24.5941 118.037 25.1108C117.754 25.6276 117.342 26.0615 116.84 26.3693C115.685 27.1048 114.336 27.4756 112.967 27.4334C111.206 27.4299 109.497 26.833 108.117 25.7388L108.113 25.7401ZM110.86 14.5299C110.83 15.1673 111.037 15.7933 111.442 16.2871C111.633 16.5074 111.871 16.6819 112.139 16.7975C112.407 16.9132 112.697 16.967 112.988 16.9551C113.273 16.9728 113.557 16.9238 113.819 16.8122C114.081 16.7006 114.313 16.5294 114.497 16.3122C114.877 15.798 115.065 15.1677 115.029 14.5299C115.044 13.9495 114.841 13.3843 114.46 12.9456C114.281 12.7263 114.054 12.5509 113.796 12.433C113.539 12.315 113.258 12.2575 112.975 12.265C112.689 12.2562 112.405 12.3078 112.14 12.4164C111.876 12.5251 111.637 12.6883 111.44 12.8954C111.042 13.3337 110.833 13.9117 110.859 14.5035L110.86 14.5299ZM130.288 17.2284H121.923C121.916 17.6592 121.996 18.0869 122.158 18.4864C122.319 18.8859 122.559 19.2491 122.863 19.5547C123.527 20.1275 124.388 20.432 125.263 20.3719C125.785 20.412 126.309 20.3413 126.801 20.1643C127.294 19.9874 127.743 19.7083 128.12 19.3453L129.186 21.5475C127.936 22.4624 126.4 22.901 124.855 22.7846C124.069 22.8251 123.283 22.6982 122.549 22.4124C121.815 22.1265 121.151 21.6882 120.599 21.1264C119.496 19.8454 118.937 18.186 119.04 16.4989C118.964 14.754 119.582 13.0501 120.759 11.7599C121.285 11.1937 121.918 10.738 122.621 10.4197C123.325 10.1013 124.085 9.9266 124.857 9.90582C125.63 9.88505 126.398 10.0186 127.118 10.2987C127.838 10.5787 128.494 10.9997 129.049 11.5368C129.566 12.0828 129.969 12.7261 130.234 13.4294C130.5 14.1326 130.623 14.8816 130.596 15.6328C130.544 16.1733 130.44 16.7076 130.286 17.2284H130.288ZM121.985 15.0513H127.813C127.841 14.2967 127.544 13.5673 126.999 13.0458C126.453 12.5244 125.708 12.2637 124.956 12.3289C123.371 12.3415 122.406 13.2439 122.01 15.0638L121.985 15.0513Z" fill="#192335"/>
</svg>
