<svg width="131" height="42" viewBox="0 0 131 42" fill="none" xmlns="http://www.w3.org/2000/svg">
<path d="M104.25 16.3594H101.236V17.8627C100.189 16.7063 98.7704 16.0471 97.1514 16.0471C93.615 16.0471 91.0488 18.981 91.0488 23.0321C91.0488 26.9351 93.6138 29.795 97.126 29.795C98.7681 29.795 100.015 29.248 101.236 27.9308V29.7464C101.236 32.456 100.165 33.7986 97.9239 33.7986C96.7282 33.7986 95.5324 33.2019 95.0097 32.2837C94.7113 31.7633 94.6107 31.266 94.5124 30.1442H91.575C91.6005 34.0473 94.0151 36.4839 97.9008 36.4839C100.118 36.4839 102.061 35.5888 103.131 33.9744C104.003 32.7312 104.253 31.5875 104.253 29.0514L104.25 16.3594ZM97.6996 18.6954C99.8668 18.6954 101.361 20.3861 101.361 22.8586C101.361 25.3947 99.9153 27.0854 97.7493 27.0854C95.5578 27.0854 94.1377 25.4433 94.1377 22.9083C94.1123 20.3722 95.5324 18.707 97.6996 18.707V18.6954Z" fill="#192335"/>
<path d="M46.2676 16.3592V29.3623H49.2558V22.6503C49.2558 19.891 50.0029 18.6976 51.6844 18.6976C53.0293 18.6976 53.677 19.8159 53.677 22.153V29.3635H56.6652V22.6503C56.6652 19.8656 57.4123 18.6976 59.0938 18.6976C60.5393 18.6976 61.0863 19.6667 61.0863 22.1288V29.3635H64.0746V21.332C64.0746 17.8626 62.5805 16.0123 59.6801 16.0123C58.0865 16.0123 56.7658 16.683 55.8441 17.9262C55.0346 16.683 53.8261 16.0123 52.3817 16.0123C51.0865 16.0123 50.4158 16.3592 49.294 17.5538V16.3592H46.2676ZM75.3084 16.3592V17.8626C74.0131 16.5443 72.8798 15.9984 71.2608 15.9984C67.7741 15.9984 65.1085 18.9069 65.1085 22.7613C65.1085 26.839 67.6989 29.7463 71.3348 29.7463C72.9041 29.7463 73.9252 29.2745 75.3199 27.9815V29.3485H78.3336V16.3592H75.3084ZM71.7719 18.6952C73.9634 18.6952 75.4726 20.4357 75.4726 22.8723C75.4726 25.3818 73.953 27.0737 71.7719 27.0737C69.6556 27.0737 68.1603 25.309 68.1603 22.8723C68.1603 20.4612 69.7042 18.6952 71.7719 18.6952ZM83.7019 16.3592H80.6882V29.3623H83.7019V16.3592ZM82.2332 9.12447C81.1114 9.12447 80.2406 9.99412 80.2406 11.0638C80.2406 12.1336 81.1369 13.0518 82.1846 13.0518C83.2809 13.0518 84.1772 12.1567 84.1772 11.0627C84.1772 9.96868 83.3052 9.12331 82.2343 9.12331L82.2332 9.12447ZM86.4658 5.81934H89.4795V29.3647H86.4658V5.81934Z" fill="#192335"/>
<path d="M109.057 16.3593H106.042V23.8924C106.042 25.9312 106.416 27.0495 107.413 28.1192C108.459 29.1878 109.878 29.7614 111.597 29.7614C113.34 29.7614 114.759 29.2144 115.806 28.1192C116.801 27.0507 117.176 25.9312 117.176 23.8924V16.3593H114.163V23.8415C114.163 26.0538 113.353 27.0738 111.598 27.0738C109.854 27.0738 109.057 26.0561 109.057 23.8415V16.3593ZM119.168 16.3593V29.3624H122.182V23.0968C122.182 19.8899 122.929 18.7208 124.957 18.7208C126.825 18.7208 127.386 19.565 127.386 22.1265V29.3867H130.399V21.4072C130.399 17.7528 128.88 16.0366 125.693 16.0366C124.272 16.0366 123.376 16.4345 122.206 17.5782V16.3847H119.167L119.168 16.3593ZM20.4475 13.541C18.4186 13.5428 16.4732 14.3488 15.0373 15.7822C13.6015 17.2156 12.7924 19.1597 12.7872 21.1886C12.7924 23.2175 13.6015 25.1616 15.0373 26.595C16.4732 28.0285 18.4186 28.8344 20.4475 28.8362C22.4764 28.8344 24.4218 28.0285 25.8577 26.595C27.2935 25.1616 28.1026 23.2175 28.1078 21.1886C28.1026 19.1597 27.2935 17.2156 25.8577 15.7822C24.4218 14.3488 22.4764 13.5428 20.4475 13.541ZM8.52219 21.1886C8.52709 18.0293 9.78574 15.001 12.0217 12.7689C14.2577 10.5369 17.2881 9.28351 20.4475 9.28413C27.03 9.28413 32.3728 14.6038 32.3728 21.1886C32.3728 21.6431 32.3312 22.056 32.2895 22.47C32.2063 23.6264 33.0355 24.4938 34.1942 24.4938C36.1405 24.4938 36.3475 21.9727 36.3475 21.1458C36.3475 12.3418 29.2238 5.23308 20.4047 5.23308C11.5856 5.23308 4.46305 12.3429 4.46305 21.147C4.46305 29.951 11.5868 37.0597 20.4059 37.0597C25.0849 37.0597 29.2677 35.036 32.2074 31.8511L35.4802 34.5803C31.7946 38.7135 26.4113 41.3178 20.407 41.3178C9.22647 41.3178 0.199219 32.2651 0.199219 21.1458C0.199219 9.98609 9.2681 0.973877 20.407 0.973877C31.5876 0.973877 40.6148 10.0266 40.6148 21.1458C40.6148 25.6097 38.4615 29.2479 34.1965 29.2479C32.2919 29.2479 31.1736 28.3806 30.5109 27.4288C28.3993 30.8172 24.6709 33.0492 20.3654 33.0492C13.8638 33.0908 8.52334 27.7584 8.52334 21.1863L8.52219 21.1886ZM20.4475 17.6753C22.3938 17.6753 23.9677 19.2458 23.9677 21.147C23.9677 22.0805 23.5969 22.9757 22.9369 23.6358C22.2768 24.2958 21.3815 24.6666 20.4481 24.6666C19.5146 24.6666 18.6194 24.2958 17.9593 23.6358C17.2992 22.9757 16.9284 22.0805 16.9284 21.147C16.9701 19.2458 18.5012 17.6753 20.4487 17.6753H20.4475Z" fill="#192335"/>
</svg>
