<svg width="279" height="195" viewBox="0 0 279 195" fill="none" xmlns="http://www.w3.org/2000/svg">
<g clip-path="url(#clip0_8_52)">
<path d="M34.4313 81.4236C34.4313 82.4251 33.6306 83.2263 32.6297 83.2263C31.6288 83.2263 30.8281 82.4251 30.8281 81.4236C30.8281 80.4221 31.6288 79.6208 32.6297 79.6208C33.6306 79.721 34.4313 80.5222 34.4313 81.4236Z" fill="#2F57EF"/>
<path d="M65.3532 81.4238C65.3532 82.4253 64.5525 83.2266 63.5516 83.2266C62.5507 83.2266 61.75 82.4253 61.75 81.4238C61.75 80.4223 62.5507 79.6211 63.5516 79.6211C64.5525 79.7212 65.3532 80.5225 65.3532 81.4238Z" fill="#2F57EF"/>
<path d="M94.5829 83.2266C95.5778 83.2266 96.3845 82.4195 96.3845 81.4238C96.3845 80.4282 95.5778 79.6211 94.5829 79.6211C93.5879 79.6211 92.7812 80.4282 92.7812 81.4238C92.7812 82.4195 93.5879 83.2266 94.5829 83.2266Z" fill="#2F57EF"/>
<path d="M125.513 83.2266C126.508 83.2266 127.314 82.4195 127.314 81.4238C127.314 80.4282 126.508 79.6211 125.513 79.6211C124.518 79.6211 123.711 80.4282 123.711 81.4238C123.711 82.4195 124.518 83.2266 125.513 83.2266Z" fill="#2F57EF"/>
<path d="M34.4313 54.8828C34.4313 55.8843 33.6306 56.6855 32.6297 56.6855C31.6288 56.6855 30.8281 55.8843 30.8281 54.8828C30.8281 53.8813 31.6288 53.0801 32.6297 53.0801C33.6306 53.1802 34.4313 53.8813 34.4313 54.8828Z" fill="#2F57EF"/>
<path d="M65.3532 54.8828C65.3532 55.8843 64.5525 56.6855 63.5516 56.6855C62.5507 56.6855 61.75 55.8843 61.75 54.8828C61.75 53.8813 62.5507 53.0801 63.5516 53.0801C64.5525 53.1802 65.3532 53.8813 65.3532 54.8828Z" fill="#2F57EF"/>
<path d="M96.2829 54.8828C96.2829 55.8843 95.4822 56.6855 94.4813 56.6855C93.4804 56.6855 92.6797 55.8843 92.6797 54.8828C92.6797 53.8813 93.4804 53.0801 94.4813 53.0801C95.5823 53.1802 96.2829 53.8813 96.2829 54.8828Z" fill="#2F57EF"/>
<path d="M127.314 54.8828C127.314 55.8843 126.513 56.6855 125.513 56.6855C124.512 56.6855 123.711 55.8843 123.711 54.8828C123.711 53.8813 124.512 53.0801 125.513 53.0801C126.513 53.1802 127.314 53.8813 127.314 54.8828Z" fill="#2F57EF"/>
<path d="M34.4313 28.3437C34.4313 29.3453 33.6306 30.1465 32.6297 30.1465C31.6288 30.1465 30.8281 29.3453 30.8281 28.3437C30.8281 27.3422 31.6288 26.541 32.6297 26.541C33.6306 26.541 34.4313 27.3422 34.4313 28.3437Z" fill="#2F57EF"/>
<path d="M65.3532 28.3437C65.3532 29.3453 64.5525 30.1465 63.5516 30.1465C62.5507 30.1465 61.75 29.3453 61.75 28.3437C61.75 27.3422 62.5507 26.541 63.5516 26.541C64.5525 26.541 65.3532 27.3422 65.3532 28.3437Z" fill="#2F57EF"/>
<path d="M96.2829 28.3437C96.2829 29.3453 95.4822 30.1465 94.4813 30.1465C93.4804 30.1465 92.6797 29.3453 92.6797 28.3437C92.6797 27.3422 93.4804 26.541 94.4813 26.541C95.5823 26.541 96.2829 27.3422 96.2829 28.3437Z" fill="#2F57EF"/>
<path d="M127.314 28.3437C127.314 29.3453 126.513 30.1465 125.513 30.1465C124.512 30.1465 123.711 29.3453 123.711 28.3437C123.711 27.3422 124.512 26.541 125.513 26.541C126.513 26.541 127.314 27.3422 127.314 28.3437Z" fill="#2F57EF"/>
<path d="M34.4313 1.80273C34.4313 2.80425 33.6306 3.60546 32.6297 3.60546C31.6288 3.60546 30.8281 2.80425 30.8281 1.80273C30.8281 0.801214 31.6288 0 32.6297 0C33.6306 0 34.4313 0.801214 34.4313 1.80273Z" fill="#2F57EF"/>
<path d="M65.3532 1.80273C65.3532 2.80425 64.5525 3.60546 63.5516 3.60546C62.5507 3.60546 61.75 2.80425 61.75 1.80273C61.75 0.801214 62.5507 0 63.5516 0C64.5525 0 65.3532 0.801214 65.3532 1.80273Z" fill="#2F57EF"/>
<path d="M96.2829 1.80273C96.2829 2.80425 95.4822 3.60546 94.4813 3.60546C93.4804 3.60546 92.6797 2.80425 92.6797 1.80273C92.6797 0.801214 93.4804 0 94.4813 0C95.5823 0 96.2829 0.801214 96.2829 1.80273Z" fill="#2F57EF"/>
<path d="M127.314 1.80273C127.314 2.80425 126.513 3.60546 125.513 3.60546C124.512 3.60546 123.711 2.80425 123.711 1.80273C123.711 0.801214 124.512 0 125.513 0C126.513 0 127.314 0.801214 127.314 1.80273Z" fill="#2F57EF"/>
</g>
<g clip-path="url(#clip1_8_52)">
<path d="M34.4313 184.865C34.4313 185.867 33.6306 186.668 32.6297 186.668C31.6288 186.668 30.8281 185.867 30.8281 184.865C30.8281 183.864 31.6288 183.062 32.6297 183.062C33.6306 183.162 34.4313 183.964 34.4313 184.865Z" fill="#2F57EF"/>
<path d="M65.3532 184.865C65.3532 185.867 64.5525 186.668 63.5516 186.668C62.5507 186.668 61.75 185.867 61.75 184.865C61.75 183.864 62.5507 183.062 63.5516 183.062C64.5525 183.163 65.3532 183.964 65.3532 184.865Z" fill="#2F57EF"/>
<path d="M94.5829 186.668C95.5778 186.668 96.3845 185.861 96.3845 184.865C96.3845 183.87 95.5778 183.062 94.5829 183.062C93.5879 183.062 92.7812 183.87 92.7812 184.865C92.7812 185.861 93.5879 186.668 94.5829 186.668Z" fill="#2F57EF"/>
<path d="M125.513 186.668C126.508 186.668 127.314 185.861 127.314 184.865C127.314 183.87 126.508 183.062 125.513 183.062C124.518 183.062 123.711 183.87 123.711 184.865C123.711 185.861 124.518 186.668 125.513 186.668Z" fill="#2F57EF"/>
<path d="M34.4313 158.324C34.4313 159.326 33.6306 160.127 32.6297 160.127C31.6288 160.127 30.8281 159.326 30.8281 158.324C30.8281 157.323 31.6288 156.521 32.6297 156.521C33.6306 156.622 34.4313 157.323 34.4313 158.324Z" fill="#2F57EF"/>
<path d="M65.3532 158.324C65.3532 159.326 64.5525 160.127 63.5516 160.127C62.5507 160.127 61.75 159.326 61.75 158.324C61.75 157.323 62.5507 156.521 63.5516 156.521C64.5525 156.622 65.3532 157.323 65.3532 158.324Z" fill="#2F57EF"/>
<path d="M96.2829 158.324C96.2829 159.326 95.4822 160.127 94.4813 160.127C93.4804 160.127 92.6797 159.326 92.6797 158.324C92.6797 157.323 93.4804 156.521 94.4813 156.521C95.5823 156.622 96.2829 157.323 96.2829 158.324Z" fill="#2F57EF"/>
<path d="M127.314 158.324C127.314 159.326 126.513 160.127 125.513 160.127C124.512 160.127 123.711 159.326 123.711 158.324C123.711 157.323 124.512 156.521 125.513 156.521C126.513 156.622 127.314 157.323 127.314 158.324Z" fill="#2F57EF"/>
<path d="M34.4313 131.785C34.4313 132.787 33.6306 133.588 32.6297 133.588C31.6288 133.588 30.8281 132.787 30.8281 131.785C30.8281 130.784 31.6288 129.982 32.6297 129.982C33.6306 129.982 34.4313 130.784 34.4313 131.785Z" fill="#2F57EF"/>
<path d="M65.3532 131.785C65.3532 132.787 64.5525 133.588 63.5516 133.588C62.5507 133.588 61.75 132.787 61.75 131.785C61.75 130.784 62.5507 129.982 63.5516 129.982C64.5525 129.982 65.3532 130.784 65.3532 131.785Z" fill="#2F57EF"/>
<path d="M96.2829 131.785C96.2829 132.787 95.4822 133.588 94.4813 133.588C93.4804 133.588 92.6797 132.787 92.6797 131.785C92.6797 130.784 93.4804 129.982 94.4813 129.982C95.5823 129.982 96.2829 130.784 96.2829 131.785Z" fill="#2F57EF"/>
<path d="M127.314 131.785C127.314 132.787 126.513 133.588 125.513 133.588C124.512 133.588 123.711 132.787 123.711 131.785C123.711 130.784 124.512 129.982 125.513 129.982C126.513 129.982 127.314 130.784 127.314 131.785Z" fill="#2F57EF"/>
<path d="M34.4313 105.244C34.4313 106.246 33.6306 107.047 32.6297 107.047C31.6288 107.047 30.8281 106.246 30.8281 105.244C30.8281 104.243 31.6288 103.441 32.6297 103.441C33.6306 103.441 34.4313 104.243 34.4313 105.244Z" fill="#2F57EF"/>
<path d="M65.3532 105.244C65.3532 106.246 64.5525 107.047 63.5516 107.047C62.5507 107.047 61.75 106.246 61.75 105.244C61.75 104.243 62.5507 103.441 63.5516 103.441C64.5525 103.441 65.3532 104.243 65.3532 105.244Z" fill="#2F57EF"/>
<path d="M96.2829 105.244C96.2829 106.246 95.4822 107.047 94.4813 107.047C93.4804 107.047 92.6797 106.246 92.6797 105.244C92.6797 104.243 93.4804 103.441 94.4813 103.441C95.5823 103.441 96.2829 104.243 96.2829 105.244Z" fill="#2F57EF"/>
<path d="M127.314 105.244C127.314 106.246 126.513 107.047 125.513 107.047C124.512 107.047 123.711 106.246 123.711 105.244C123.711 104.243 124.512 103.441 125.513 103.441C126.513 103.441 127.314 104.243 127.314 105.244Z" fill="#2F57EF"/>
</g>
<g clip-path="url(#clip2_8_52)">
<path d="M154.681 81.4236C154.681 82.4251 153.881 83.2263 152.88 83.2263C151.879 83.2263 151.078 82.4251 151.078 81.4236C151.078 80.4221 151.879 79.6208 152.88 79.6208C153.881 79.721 154.681 80.5222 154.681 81.4236Z" fill="#2F57EF"/>
<path d="M185.611 81.4238C185.611 82.4253 184.81 83.2266 183.809 83.2266C182.809 83.2266 182.008 82.4253 182.008 81.4238C182.008 80.4223 182.809 79.6211 183.809 79.6211C184.81 79.7212 185.611 80.5225 185.611 81.4238Z" fill="#2F57EF"/>
<path d="M216.533 81.4238C216.533 82.4253 215.732 83.2266 214.731 83.2266C213.73 83.2266 212.93 82.4253 212.93 81.4238C212.93 80.4223 213.73 79.6211 214.731 79.6211C215.732 79.7212 216.533 80.5225 216.533 81.4238Z" fill="#2F57EF"/>
<path d="M245.763 83.2266C246.758 83.2266 247.564 82.4195 247.564 81.4238C247.564 80.4282 246.758 79.6211 245.763 79.6211C244.768 79.6211 243.961 80.4282 243.961 81.4238C243.961 82.4195 244.768 83.2266 245.763 83.2266Z" fill="#2F57EF"/>
<path d="M276.692 83.2266C277.687 83.2266 278.494 82.4195 278.494 81.4238C278.494 80.4282 277.687 79.6211 276.692 79.6211C275.697 79.6211 274.891 80.4282 274.891 81.4238C274.891 82.4195 275.697 83.2266 276.692 83.2266Z" fill="#2F57EF"/>
<path d="M154.681 54.8828C154.681 55.8843 153.881 56.6855 152.88 56.6855C151.879 56.6855 151.078 55.8843 151.078 54.8828C151.078 53.8813 151.879 53.0801 152.88 53.0801C153.881 53.1802 154.681 53.8813 154.681 54.8828Z" fill="#2F57EF"/>
<path d="M185.611 54.8828C185.611 55.8843 184.81 56.6855 183.809 56.6855C182.809 56.6855 182.008 55.8843 182.008 54.8828C182.008 53.8813 182.809 53.0801 183.809 53.0801C184.81 53.1802 185.611 53.8813 185.611 54.8828Z" fill="#2F57EF"/>
<path d="M216.533 54.8828C216.533 55.8843 215.732 56.6855 214.731 56.6855C213.73 56.6855 212.93 55.8843 212.93 54.8828C212.93 53.8813 213.73 53.0801 214.731 53.0801C215.732 53.1802 216.533 53.8813 216.533 54.8828Z" fill="#2F57EF"/>
<path d="M247.463 54.8828C247.463 55.8843 246.662 56.6855 245.661 56.6855C244.66 56.6855 243.859 55.8843 243.859 54.8828C243.859 53.8813 244.66 53.0801 245.661 53.0801C246.762 53.1802 247.463 53.8813 247.463 54.8828Z" fill="#2F57EF"/>
<path d="M278.494 54.8828C278.494 55.8843 277.693 56.6855 276.692 56.6855C275.691 56.6855 274.891 55.8843 274.891 54.8828C274.891 53.8813 275.691 53.0801 276.692 53.0801C277.693 53.1802 278.494 53.8813 278.494 54.8828Z" fill="#2F57EF"/>
<path d="M154.681 28.3437C154.681 29.3453 153.881 30.1465 152.88 30.1465C151.879 30.1465 151.078 29.3453 151.078 28.3437C151.078 27.3422 151.879 26.541 152.88 26.541C153.881 26.541 154.681 27.3422 154.681 28.3437Z" fill="#2F57EF"/>
<path d="M185.611 28.3437C185.611 29.3453 184.81 30.1465 183.809 30.1465C182.809 30.1465 182.008 29.3453 182.008 28.3437C182.008 27.3422 182.809 26.541 183.809 26.541C184.81 26.541 185.611 27.3422 185.611 28.3437Z" fill="#2F57EF"/>
<path d="M216.533 28.3437C216.533 29.3453 215.732 30.1465 214.731 30.1465C213.73 30.1465 212.93 29.3453 212.93 28.3437C212.93 27.3422 213.73 26.541 214.731 26.541C215.732 26.541 216.533 27.3422 216.533 28.3437Z" fill="#2F57EF"/>
<path d="M247.463 28.3437C247.463 29.3453 246.662 30.1465 245.661 30.1465C244.66 30.1465 243.859 29.3453 243.859 28.3437C243.859 27.3422 244.66 26.541 245.661 26.541C246.762 26.541 247.463 27.3422 247.463 28.3437Z" fill="#2F57EF"/>
<path d="M278.494 28.3437C278.494 29.3453 277.693 30.1465 276.692 30.1465C275.691 30.1465 274.891 29.3453 274.891 28.3437C274.891 27.3422 275.691 26.541 276.692 26.541C277.693 26.541 278.494 27.3422 278.494 28.3437Z" fill="#2F57EF"/>
<path d="M154.683 1.80273C154.683 2.80425 153.882 3.60546 152.881 3.60546C151.98 3.50531 151.18 2.7041 151.18 1.80273C151.18 0.801214 151.98 0 152.981 0C153.882 0 154.683 0.801214 154.683 1.80273Z" fill="#2F57EF"/>
<path d="M185.611 1.80273C185.611 2.80425 184.81 3.60546 183.809 3.60546C182.809 3.60546 182.008 2.80425 182.008 1.80273C182.008 0.801214 182.809 0 183.809 0C184.81 0 185.611 0.801214 185.611 1.80273Z" fill="#2F57EF"/>
<path d="M216.533 1.80273C216.533 2.80425 215.732 3.60546 214.731 3.60546C213.73 3.60546 212.93 2.80425 212.93 1.80273C212.93 0.801214 213.73 0 214.731 0C215.732 0 216.533 0.801214 216.533 1.80273Z" fill="#2F57EF"/>
<path d="M247.463 1.80273C247.463 2.80425 246.662 3.60546 245.661 3.60546C244.66 3.60546 243.859 2.80425 243.859 1.80273C243.859 0.801214 244.66 0 245.661 0C246.762 0 247.463 0.801214 247.463 1.80273Z" fill="#2F57EF"/>
<path d="M278.494 1.80273C278.494 2.80425 277.693 3.60546 276.692 3.60546C275.691 3.60546 274.891 2.80425 274.891 1.80273C274.891 0.801214 275.691 0 276.692 0C277.693 0 278.494 0.801214 278.494 1.80273Z" fill="#2F57EF"/>
</g>
<g clip-path="url(#clip3_8_52)">
<path d="M154.681 184.865C154.681 185.867 153.881 186.668 152.88 186.668C151.879 186.668 151.078 185.867 151.078 184.865C151.078 183.864 151.879 183.062 152.88 183.062C153.881 183.162 154.681 183.964 154.681 184.865Z" fill="#2F57EF"/>
<path d="M185.611 184.865C185.611 185.867 184.81 186.668 183.809 186.668C182.809 186.668 182.008 185.867 182.008 184.865C182.008 183.864 182.809 183.062 183.809 183.062C184.81 183.163 185.611 183.964 185.611 184.865Z" fill="#2F57EF"/>
<path d="M216.533 184.865C216.533 185.867 215.732 186.668 214.731 186.668C213.73 186.668 212.93 185.867 212.93 184.865C212.93 183.864 213.73 183.062 214.731 183.062C215.732 183.163 216.533 183.964 216.533 184.865Z" fill="#2F57EF"/>
<path d="M245.763 186.668C246.758 186.668 247.564 185.861 247.564 184.865C247.564 183.87 246.758 183.062 245.763 183.062C244.768 183.062 243.961 183.87 243.961 184.865C243.961 185.861 244.768 186.668 245.763 186.668Z" fill="#2F57EF"/>
<path d="M276.692 186.668C277.687 186.668 278.494 185.861 278.494 184.865C278.494 183.87 277.687 183.062 276.692 183.062C275.697 183.062 274.891 183.87 274.891 184.865C274.891 185.861 275.697 186.668 276.692 186.668Z" fill="#2F57EF"/>
<path d="M154.681 158.324C154.681 159.326 153.881 160.127 152.88 160.127C151.879 160.127 151.078 159.326 151.078 158.324C151.078 157.323 151.879 156.521 152.88 156.521C153.881 156.622 154.681 157.323 154.681 158.324Z" fill="#2F57EF"/>
<path d="M185.611 158.324C185.611 159.326 184.81 160.127 183.809 160.127C182.809 160.127 182.008 159.326 182.008 158.324C182.008 157.323 182.809 156.521 183.809 156.521C184.81 156.622 185.611 157.323 185.611 158.324Z" fill="#2F57EF"/>
<path d="M216.533 158.324C216.533 159.326 215.732 160.127 214.731 160.127C213.73 160.127 212.93 159.326 212.93 158.324C212.93 157.323 213.73 156.521 214.731 156.521C215.732 156.622 216.533 157.323 216.533 158.324Z" fill="#2F57EF"/>
<path d="M247.463 158.324C247.463 159.326 246.662 160.127 245.661 160.127C244.66 160.127 243.859 159.326 243.859 158.324C243.859 157.323 244.66 156.521 245.661 156.521C246.762 156.622 247.463 157.323 247.463 158.324Z" fill="#2F57EF"/>
<path d="M278.494 158.324C278.494 159.326 277.693 160.127 276.692 160.127C275.691 160.127 274.891 159.326 274.891 158.324C274.891 157.323 275.691 156.521 276.692 156.521C277.693 156.622 278.494 157.323 278.494 158.324Z" fill="#2F57EF"/>
<path d="M154.681 131.785C154.681 132.787 153.881 133.588 152.88 133.588C151.879 133.588 151.078 132.787 151.078 131.785C151.078 130.784 151.879 129.982 152.88 129.982C153.881 129.982 154.681 130.784 154.681 131.785Z" fill="#2F57EF"/>
<path d="M185.611 131.785C185.611 132.787 184.81 133.588 183.809 133.588C182.809 133.588 182.008 132.787 182.008 131.785C182.008 130.784 182.809 129.982 183.809 129.982C184.81 129.982 185.611 130.784 185.611 131.785Z" fill="#2F57EF"/>
<path d="M216.533 131.785C216.533 132.787 215.732 133.588 214.731 133.588C213.73 133.588 212.93 132.787 212.93 131.785C212.93 130.784 213.73 129.982 214.731 129.982C215.732 129.982 216.533 130.784 216.533 131.785Z" fill="#2F57EF"/>
<path d="M247.463 131.785C247.463 132.787 246.662 133.588 245.661 133.588C244.66 133.588 243.859 132.787 243.859 131.785C243.859 130.784 244.66 129.982 245.661 129.982C246.762 129.982 247.463 130.784 247.463 131.785Z" fill="#2F57EF"/>
<path d="M278.494 131.785C278.494 132.787 277.693 133.588 276.692 133.588C275.691 133.588 274.891 132.787 274.891 131.785C274.891 130.784 275.691 129.982 276.692 129.982C277.693 129.982 278.494 130.784 278.494 131.785Z" fill="#2F57EF"/>
<path d="M154.683 105.244C154.683 106.246 153.882 107.047 152.881 107.047C151.98 106.947 151.18 106.146 151.18 105.244C151.18 104.243 151.98 103.441 152.981 103.441C153.882 103.441 154.683 104.243 154.683 105.244Z" fill="#2F57EF"/>
<path d="M185.611 105.244C185.611 106.246 184.81 107.047 183.809 107.047C182.809 107.047 182.008 106.246 182.008 105.244C182.008 104.243 182.809 103.441 183.809 103.441C184.81 103.441 185.611 104.243 185.611 105.244Z" fill="#2F57EF"/>
<path d="M216.533 105.244C216.533 106.246 215.732 107.047 214.731 107.047C213.73 107.047 212.93 106.246 212.93 105.244C212.93 104.243 213.73 103.441 214.731 103.441C215.732 103.441 216.533 104.243 216.533 105.244Z" fill="#2F57EF"/>
<path d="M247.463 105.244C247.463 106.246 246.662 107.047 245.661 107.047C244.66 107.047 243.859 106.246 243.859 105.244C243.859 104.243 244.66 103.441 245.661 103.441C246.762 103.441 247.463 104.243 247.463 105.244Z" fill="#2F57EF"/>
<path d="M278.494 105.244C278.494 106.246 277.693 107.047 276.692 107.047C275.691 107.047 274.891 106.246 274.891 105.244C274.891 104.243 275.691 103.441 276.692 103.441C277.693 103.441 278.494 104.243 278.494 105.244Z" fill="#2F57EF"/>
</g>
<defs>
<clipPath id="clip0_8_52">
<rect width="127.313" height="90.9378" fill="white"/>
</clipPath>
<clipPath id="clip1_8_52">
<rect width="127.313" height="90.9378" fill="white" transform="translate(0 103.441)"/>
</clipPath>
<clipPath id="clip2_8_52">
<rect width="127.313" height="90.9378" fill="white" transform="translate(151.18)"/>
</clipPath>
<clipPath id="clip3_8_52">
<rect width="127.313" height="90.9378" fill="white" transform="translate(151.18 103.441)"/>
</clipPath>
</defs>
</svg>
