<svg width="42" height="42" viewBox="0 0 42 42" fill="none" xmlns="http://www.w3.org/2000/svg">
<path d="M40.9991 18.5481C40.9992 18.3886 40.9515 18.2276 40.8504 18.0887C40.8154 18.0406 40.7756 17.9982 40.7327 17.9606C40.7329 17.9605 40.7329 17.9604 40.7331 17.9603L38.0369 15.6007C38.6179 15.1329 38.9905 14.4165 38.9905 13.6143V12.3323C38.9905 8.88602 36.1868 6.08228 32.7405 6.08228C29.2943 6.08228 26.4906 8.88602 26.4906 12.3323C26.4906 15.7785 29.2943 18.5822 32.7405 18.5822C33.172 18.5822 33.5218 18.2325 33.5218 17.801C33.5218 17.3695 33.172 17.0197 32.7405 17.0197C30.1559 17.0197 28.0531 14.9169 28.0531 12.3323C28.0531 9.74758 30.1559 7.64477 32.7405 7.64477C35.3252 7.64477 37.428 9.74758 37.428 12.3323V13.6143C37.428 14.1588 36.9851 14.6018 36.4405 14.6018C35.8959 14.6018 35.453 14.1588 35.453 13.6143V12.5348V10.2887C35.453 10.0738 35.3645 9.86852 35.2084 9.72094C34.5383 9.08742 33.6619 8.73852 32.7405 8.73852C30.759 8.73852 29.1468 10.3507 29.1468 12.3323C29.1468 14.3138 30.759 15.926 32.7405 15.926C33.411 15.926 34.0573 15.7404 34.6181 15.3955C35.0665 15.8541 35.6858 16.1443 36.3719 16.1626C36.4139 16.2358 36.4678 16.3038 36.5349 16.3626L38.968 18.4919L32.7187 23.0384V21.0017C32.7187 20.5702 32.3689 20.2204 31.9374 20.2204C31.5059 20.2204 31.1562 20.5702 31.1562 21.0017V24.1751L25.3238 28.4182L21.4596 25.6069C21.1856 25.4075 20.8143 25.4075 20.5403 25.6069L16.6761 28.4182L3.06578 18.5165L7.51131 14.626C7.836 14.3419 7.86881 13.8483 7.58467 13.5236C7.30045 13.1989 6.80694 13.1661 6.48225 13.4502L1.28812 17.9423C1.28781 17.9426 1.2875 17.9429 1.28719 17.9432C1.11195 18.0865 1 18.3042 1 18.5482V40.2203C1 40.6518 1.34976 41.0016 1.78125 41.0016H40.2186C40.6501 41.0016 40.9999 40.6518 40.9999 40.2203V18.5482C40.9997 18.5482 40.9993 18.5481 40.9991 18.5481ZM33.8905 12.5348V13.6144V14.0062C33.554 14.2383 33.1552 14.3635 32.7406 14.3635C31.6206 14.3635 30.7094 13.4523 30.7094 12.3323C30.7094 11.2123 31.6206 10.301 32.7406 10.301C33.1553 10.301 33.554 10.4262 33.8905 10.6584V12.5348ZM2.5625 20.0826L15.3481 29.3842L2.5625 38.6859V20.0826ZM4.18312 39.4391L20.9999 27.2047L37.8168 39.4391H4.18312ZM39.4374 38.6859L26.6518 29.3842L39.4374 20.0826V38.6859Z" fill="white"/>
<path d="M27.3552 6.25286L21.5115 1.19038C21.2147 0.933113 20.7797 0.9403 20.4908 1.18944C20.4906 1.18921 20.4904 1.18905 20.4902 1.18882L17.6777 3.61068C17.3508 3.89225 17.314 4.38552 17.5955 4.71248C17.7501 4.89193 17.9683 4.98396 18.1879 4.98396C18.3684 4.98396 18.5498 4.92177 18.6973 4.79474L20.9986 2.81311L24.7697 6.08013H10.0625C9.63101 6.08013 9.28125 6.42989 9.28125 6.86138V18.1089C9.28125 18.5404 9.63101 18.8902 10.0625 18.8902C10.494 18.8902 10.8437 18.5404 10.8437 18.1089V7.6427H26.8436C26.841 7.63622 26.8391 7.63059 26.8366 7.62427C26.8388 7.62427 26.841 7.62458 26.8432 7.62458C27.062 7.62458 27.2796 7.53317 27.4341 7.35489C27.7166 7.0288 27.6813 6.53536 27.3552 6.25286Z" fill="white"/>
<path d="M21.1075 13.9688H13.2969C12.8654 13.9688 12.5156 14.3185 12.5156 14.75C12.5156 15.1815 12.8654 15.5312 13.2969 15.5312H21.1075C21.539 15.5312 21.8887 15.1815 21.8887 14.75C21.8887 14.3185 21.539 13.9688 21.1075 13.9688Z" fill="white"/>
<path d="M20.9986 10.0625H13.2969C12.8654 10.0625 12.5156 10.4123 12.5156 10.8437C12.5156 11.2752 12.8654 11.625 13.2969 11.625H20.9986C21.4301 11.625 21.7799 11.2752 21.7799 10.8437C21.7799 10.4123 21.4301 10.0625 20.9986 10.0625Z" fill="white"/>
<path d="M10.6148 20.7077C10.4695 20.5624 10.268 20.4788 10.0625 20.4788C9.85703 20.4788 9.65547 20.5624 9.51016 20.7077C9.36484 20.853 9.28125 21.0545 9.28125 21.26C9.28125 21.4663 9.36484 21.667 9.51016 21.8124C9.65547 21.9585 9.85703 22.0413 10.0625 22.0413C10.268 22.0413 10.4695 21.9584 10.6148 21.8124C10.7602 21.667 10.8437 21.4663 10.8437 21.26C10.8437 21.0545 10.7602 20.853 10.6148 20.7077Z" fill="white"/>
<path d="M26.2801 17.8186H24.7498C24.3183 17.8186 23.9685 18.1684 23.9685 18.5999C23.9685 19.0313 24.3183 19.3811 24.7498 19.3811H26.2801C26.7116 19.3811 27.0614 19.0313 27.0614 18.5999C27.0614 18.1684 26.7116 17.8186 26.2801 17.8186Z" fill="white"/>
<path d="M21.2957 17.8184H21.2871C20.8556 17.8184 20.5059 18.1681 20.5059 18.5996C20.5059 19.0311 20.8556 19.3809 21.2871 19.3809H21.2957C21.7271 19.3809 22.0769 19.0311 22.0769 18.5996C22.0769 18.1681 21.7272 17.8184 21.2957 17.8184Z" fill="white"/>
<path d="M17.5631 17.8184H13.2949C12.8634 17.8184 12.5137 18.1681 12.5137 18.5996C12.5137 19.0311 12.8634 19.3809 13.2949 19.3809H17.5631C17.9946 19.3809 18.3444 19.0311 18.3444 18.5996C18.3444 18.1681 17.9946 17.8184 17.5631 17.8184Z" fill="white"/>
</svg>
