<svg width="57" height="64" viewBox="0 0 57 64" fill="none" xmlns="http://www.w3.org/2000/svg">
<path d="M36.1 25.444H16.045V29.685H36.1V25.444ZM24.069 16.962H16.045V21.203H24.068L24.069 16.962ZM48.139 15.142V8.481H39.312L28.081 0L16.849 8.481H8.022V15.142L0 21.203V63.609H56.162V21.203L48.139 15.142ZM12.034 12.722H44.127V28.943L28.081 42.936L12.034 28.943V12.722ZM4.01 29.684L19.81 42.384L4.01 55.128V29.684ZM8.022 59.372L23.943 45.702L28.08 49.032L32.209 45.711L48.139 59.372H8.022ZM52.151 55.131L36.331 42.402L52.151 29.684V55.128V55.131Z" fill="white"/>
</svg>
