<svg width="45" height="45" viewBox="0 0 45 45" fill="none" xmlns="http://www.w3.org/2000/svg">
<g clip-path="url(#clip0_113_3849)">
<path d="M0 39.4021L3.7291 35.673L9.32275 41.2666L5.59365 44.9957L0 39.4021Z" fill="#BE66F9"/>
<path d="M5.5957 33.809L23.6785 15.7261L29.2722 21.3198L11.1894 39.4026L5.5957 33.809Z" fill="#BE66F9"/>
<path d="M33.0977 17.501C33.8449 16.7538 34.2564 15.7604 34.2564 14.7038C34.2564 13.6471 33.8449 12.6537 33.0977 11.9065C32.3505 11.1592 31.3571 10.7477 30.3004 10.7477C29.2438 10.7477 28.2503 11.1592 27.5032 11.9065L25.5488 13.8608L31.1433 19.4553L33.0977 17.501Z" fill="#BE66F9"/>
<path d="M17.5688 14.9044H20.2061C20.2061 12.1541 22.4437 9.91652 25.194 9.91652V7.27916C22.4437 7.27916 20.2061 5.04158 20.2061 2.29138H17.5688C17.5688 5.04158 15.3313 7.27916 12.5811 7.27916V9.91643C15.3313 9.91643 17.5688 12.154 17.5688 14.9044Z" fill="#BE66F9"/>
<path d="M37.7736 20.2766H35.1363C35.1363 23.0269 32.8987 25.2645 30.1484 25.2645V27.9017C32.8987 27.9017 35.1363 30.1393 35.1363 32.8895H37.7736C37.7736 30.1393 40.0112 27.9017 42.7614 27.9017V25.2645C40.0111 25.2645 37.7736 23.0269 37.7736 20.2766Z" fill="#BE66F9"/>
<path d="M40.0119 0.00427246H37.3746C37.3746 2.75456 35.137 4.99214 32.3867 4.99214V7.62941C35.137 7.62941 37.3746 9.86699 37.3746 12.6173H40.0119C40.0119 9.86699 42.2494 7.62941 44.9997 7.62941V4.99214C42.2494 4.99214 40.0119 2.75456 40.0119 0.00427246Z" fill="#BE66F9"/>
<path d="M42.3623 15.9158H44.9996V18.553H42.3623V15.9158Z" fill="#BE66F9"/>
<path d="M26.417 0.00427246H29.0543V2.64154H26.417V0.00427246Z" fill="#BE66F9"/>
</g>
<defs>
<clipPath id="clip0_113_3849">
<rect width="45" height="45" fill="white"/>
</clipPath>
</defs>
</svg>
