<svg width="45" height="45" viewBox="0 0 45 45" fill="none" xmlns="http://www.w3.org/2000/svg">
<g clip-path="url(#clip0_113_3793)">
<path d="M45 7.91016V0H37.0826V2.63672H26.2024C25.6576 1.10224 24.1908 0 22.4706 0C20.7505 0 19.2836 1.10224 18.739 2.63672H7.91745V0H0V7.91016H7.91745V5.27344H13.02C9.70945 7.29712 7.05946 10.359 5.57842 14.0556C5.4479 14.3813 5.32731 14.7117 5.21578 15.0455C3.39979 15.4027 2.02553 17.0065 2.02553 18.9257C2.02553 21.1065 3.79978 22.8807 5.98061 22.8807C8.16144 22.8807 9.93568 21.1065 9.93568 18.9257C9.93568 17.4277 9.09861 16.1218 7.86779 15.4506C7.91886 15.3117 7.97115 15.1733 8.02608 15.0362C9.91283 10.327 14.0161 6.82295 18.901 5.66358C19.54 6.99144 20.8999 7.91016 22.4706 7.91016C24.0463 7.91016 25.4097 6.98546 26.0464 5.65075C30.9545 6.79729 35.0804 10.3099 36.9741 15.0361C37.029 15.1733 37.0813 15.3116 37.1324 15.4506C35.9015 16.1218 35.0644 17.4277 35.0644 18.9257C35.0644 21.1065 36.8386 22.8807 39.0195 22.8807C41.2003 22.8807 42.9746 21.1065 42.9746 18.9257C42.9746 17.0065 41.6003 15.4027 39.7843 15.0455C39.6727 14.7117 39.5521 14.3811 39.4217 14.0555C37.9406 10.3589 35.2906 7.29712 31.9801 5.27344H37.0826V7.91016H45Z" fill="#FB563A"/>
<path d="M22.4707 28.3588C23.1988 28.3588 23.7891 27.7693 23.7891 27.0422C23.7891 26.315 23.1988 25.7256 22.4707 25.7256C21.7426 25.7256 21.1523 26.315 21.1523 27.0422C21.1523 27.7693 21.7426 28.3588 22.4707 28.3588Z" fill="#FB563A"/>
<path d="M23.7892 23.3148C25.3237 23.8588 26.4259 25.3239 26.4259 27.0422C26.4259 29.2219 24.6514 30.9955 22.4708 30.9955C20.2894 30.9955 18.5157 29.2219 18.5157 27.0422C18.5157 25.3239 19.6179 23.8588 21.1524 23.3148V13.0316L6.4668 27.7163L12.7598 34.0102V36.5625H32.181V34.0102L38.4739 27.7163L23.7892 13.0316V23.3148Z" fill="#FB563A"/>
<path d="M9.72656 39.1992H35.2148V45H9.72656V39.1992Z" fill="#FB563A"/>
</g>
<defs>
<clipPath id="clip0_113_3793">
<rect width="45" height="45" fill="white"/>
</clipPath>
</defs>
</svg>
