<svg width="45" height="45" viewBox="0 0 45 45" fill="none" xmlns="http://www.w3.org/2000/svg">
<g clip-path="url(#clip0_113_3827)">
<path d="M22.4946 45C24.8896 45 26.8839 43.2483 27.2627 40.9579H17.7266C18.1054 43.2483 20.0996 45 22.4946 45Z" fill="#FFD200"/>
<path d="M29.885 33.0479H12.4668V35.6846H15.1035V38.3212H29.885V35.685H32.5213V33.0483H29.885V33.0479Z" fill="#FFD200"/>
<path d="M22.6808 0.00112633C18.7714 -0.0472135 15.058 1.46187 12.228 4.2524C9.39788 7.04204 7.83518 10.7317 7.82815 14.6419C7.82024 18.6839 9.50511 22.5898 12.4494 25.3592C13.8513 26.6775 14.7566 28.4731 15.022 30.4111H21.2464V21.6212H17.7158L16.4063 14.379L19.0008 13.9105L19.9184 18.9844H25.2112L26.1287 13.9105L28.7233 14.379L27.4137 21.6212H23.8831V30.411H29.9696C30.242 28.4862 31.1763 26.6616 32.6247 25.2782C35.5497 22.4833 37.1608 18.7154 37.1608 14.6699C37.1608 10.7843 35.657 7.12194 32.9262 4.35866C30.1981 1.59722 26.5594 0.0494662 22.6808 0.00112633Z" fill="#FFD200"/>
<path d="M39.8076 13.326H45.0002V15.9627H39.8076V13.326Z" fill="#FFD200"/>
<path d="M37.7676 6.3454L42.6487 4.56951L43.5504 7.04802L38.6693 8.82391L37.7676 6.3454Z" fill="#FFD200"/>
<path d="M37.7588 22.9343L38.6605 20.4558L43.5417 22.2317L42.6399 24.7102L37.7588 22.9343Z" fill="#FFD200"/>
<path d="M0 13.326H5.19258V15.9627H0V13.326Z" fill="#FFD200"/>
<path d="M1.46387 7.03967L2.36562 4.56116L7.24673 6.33705L6.34497 8.81556L1.46387 7.03967Z" fill="#FFD200"/>
<path d="M1.46094 22.2551L6.34204 20.4792L7.2438 22.9578L2.3627 24.7336L1.46094 22.2551Z" fill="#FFD200"/>
</g>
<defs>
<clipPath id="clip0_113_3827">
<rect width="45" height="45" fill="white"/>
</clipPath>
</defs>
</svg>
