<svg width="35" height="45" viewBox="0 0 35 45" fill="none" xmlns="http://www.w3.org/2000/svg">
<path d="M34.1272 25.2854L32.0585 23.6503C28.5147 28.1353 23.2085 30.7075 17.5001 30.7075C15.7368 30.7075 14.0057 30.463 12.3357 29.9793L16.4249 22.1349C13.622 21.8352 11.1602 20.376 9.53159 18.2471L5.38465 26.2024C4.49256 25.4318 3.67438 24.5774 2.9419 23.6502L0.873047 25.2853C1.83765 26.506 2.93215 27.6163 4.13643 28.5968L1.90875 32.8701C1.09488 34.4313 0.937559 36.2165 1.46578 37.8962C1.85962 39.1486 2.59983 40.2309 3.59783 41.0379L2.16794 43.781L4.50601 45L11.0955 32.3586C13.1595 33.0132 15.3085 33.3445 17.5002 33.3445C24.02 33.3445 30.0803 30.4071 34.1272 25.2854Z" fill="#25C6DA"/>
<path d="M17.5001 19.556C21.577 19.556 24.8937 16.2389 24.8937 12.1617C24.8937 8.53427 22.2685 5.50863 18.8184 4.88505V0H16.1817V4.88505C12.7317 5.50863 10.1064 8.53427 10.1064 12.1617C10.1064 16.2389 13.4233 19.556 17.5001 19.556ZM16.1817 10.8432H18.8184V13.4801H16.1817V10.8432Z" fill="#25C6DA"/>
<path d="M18.5752 22.1349L21.4167 27.5865C24.0077 26.9334 26.3904 25.6352 28.3583 23.7901L25.4685 18.2462C23.8407 20.3752 21.3789 21.8352 18.5752 22.1349Z" fill="#25C6DA"/>
<path d="M32.1089 30.9847C30.0074 32.6223 27.6555 33.8871 25.1436 34.7344L30.4942 45L32.8322 43.7809L31.4023 41.0379C32.4004 40.2309 33.1406 39.1486 33.5345 37.8961C34.0627 36.2164 33.9054 34.4311 33.0915 32.87L32.1089 30.9847Z" fill="#25C6DA"/>
</svg>
