<svg width="42" height="42" viewBox="0 0 42 42" fill="none" xmlns="http://www.w3.org/2000/svg">
<path d="M29.7656 21.6232C29.3855 21.6232 29.0791 21.3157 29.0791 20.9356C29.0836 16.5201 25.5181 12.9194 21.0618 12.9194C20.6828 12.9194 20.3752 12.6119 20.3752 12.2328C20.3752 11.8618 20.6714 11.5452 21.0709 11.5452C26.2285 11.5452 30.4579 15.7189 30.4533 20.9367C30.4522 21.3168 30.1447 21.6232 29.7656 21.6232Z" fill="white"/>
<path d="M34.3956 21.6215C34.0154 21.6215 33.709 21.314 33.709 20.9338C33.7136 13.9651 28.0827 8.28658 21.0618 8.28658C20.6828 8.28658 20.3752 7.97906 20.3752 7.60004C20.3752 7.23009 20.6714 6.91235 21.0697 6.91235C28.8419 6.91235 35.0878 13.2184 35.0833 20.935C35.0821 21.3151 34.7746 21.6215 34.3956 21.6215Z" fill="white"/>
<path d="M38.7089 21.622C38.3299 21.622 38.0224 21.3145 38.0224 20.9355C38.0269 11.5791 30.4601 3.9749 21.0618 3.9749C20.6828 3.9749 20.3752 3.66737 20.3752 3.28835C20.3752 2.91841 20.6703 2.60181 21.0686 2.60181C31.1921 2.60181 39.4 10.8041 39.3955 20.9366C39.3955 21.3145 39.0879 21.622 38.7089 21.622Z" fill="white"/>
<path d="M31.0968 41C30.5192 41 28.8136 40.8854 26.1594 39.7483C21.1629 37.6081 16.3048 33.4037 12.5249 29.4751C9.78207 26.8355 7.47164 24.221 5.65824 21.7052C4.1955 19.6762 3.04936 17.7028 2.2516 15.8406C0.939785 12.78 0.989716 10.9803 1.00447 10.7181C1.08504 6.71117 3.1844 3.56667 6.55586 1.52745C8.20812 0.527702 10.3574 0.988427 11.4479 2.57713L15.6217 8.65394C16.1335 9.39949 16.3491 10.3039 16.2288 11.2004C16.1085 12.0969 15.6614 12.9117 14.9703 13.4961L13.637 14.6229C13.6381 14.6275 13.6381 14.6331 13.6392 14.6377C14.3088 18.8716 23.1283 27.6912 27.3622 28.3607C27.3668 28.3618 27.3725 28.3618 27.377 28.363L28.5038 27.0296C29.709 25.602 31.8027 25.3195 33.346 26.3782L39.4228 30.552C41.0115 31.6425 41.4722 33.7918 40.4725 35.4441C38.212 39.1764 34.8258 41 31.0968 41ZM2.3753 10.8044C2.37076 10.8781 2.29586 12.5179 3.57704 15.4468C4.78899 18.2168 7.49207 22.7287 13.486 28.4946C13.7368 28.7034 19.8931 35.5088 26.5531 38.4229C27.9512 39.0345 29.7033 39.6224 31.2398 39.6224C35.5032 39.5429 37.9748 36.9193 39.298 34.7337C39.921 33.7033 39.635 32.3642 38.6455 31.6845L32.5687 27.5107C31.6041 26.848 30.3082 27.0228 29.5535 27.9159L28.1861 29.5341C28.0408 29.7066 27.8196 29.7962 27.596 29.7747C27.4485 29.7599 27.2976 29.7406 27.1478 29.7179C23.3508 29.1153 17.2649 23.5458 14.2917 19.178C13.1467 17.4974 12.4704 16.0414 12.282 14.8533C12.2582 14.7035 12.2389 14.5537 12.2253 14.4051C12.2037 14.1804 12.2934 13.9602 12.4659 13.815L14.0841 12.4475C14.9771 11.6929 15.1519 10.397 14.4892 9.4324L10.3166 3.35447C9.63682 2.36493 8.29777 2.07896 7.26738 2.70196C5.08064 4.02513 2.45813 6.4967 2.3787 10.7601C2.37756 10.7783 2.37756 10.7873 2.3753 10.8044Z" fill="white"/>
</svg>
