<svg width="21" height="16" viewBox="0 0 21 16" fill="none" xmlns="http://www.w3.org/2000/svg">
<path d="M21 9.875C21 13.0156 18.4688 15.5 15.375 15.5H15C14.1562 15.5 13.5 14.8438 13.5 14C13.5 13.2031 14.1562 12.5 15 12.5H15.375C16.7812 12.5 18 11.3281 18 9.875V9.5H15C13.3125 9.5 12 8.1875 12 6.5V3.5C12 1.85938 13.3125 0.5 15 0.5H18C19.6406 0.5 21 1.85938 21 3.5V5V6.5V9.875ZM9 9.875C9 13.0156 6.46875 15.5 3.375 15.5H3C2.15625 15.5 1.5 14.8438 1.5 14C1.5 13.2031 2.15625 12.5 3 12.5H3.375C4.78125 12.5 6 11.3281 6 9.875V9.5H3C1.3125 9.5 0 8.1875 0 6.5V3.5C0 1.85938 1.3125 0.5 3 0.5H6C7.64062 0.5 9 1.85938 9 3.5V5V6.5V9.875Z" fill="white"/>
</svg>
