<svg width="42" height="30" viewBox="0 0 42 30" fill="none" xmlns="http://www.w3.org/2000/svg">
<path d="M33 30C28.0312 30 24 25.9688 24 21V12C24 5.34375 29.4375 0 36 0C37.6875 0 39 1.3125 39 3C39 4.59375 37.6875 6 36 6C32.7188 6 30 8.625 30 12V12.4688C31.0313 12.1875 31.9688 12 33 12C38.0625 12 42 15.9375 42 21C42 25.9688 38.0625 30 33 30ZM0 21L0 12C0 5.34375 5.4375 0 12 0C13.6875 0 15 1.3125 15 3C15 4.59375 13.6875 6 12 6C8.71875 6 6 8.625 6 12V12.4687C7.03125 12.1875 7.96875 12 9 12C14.0625 12 18 15.9375 18 21C18 25.9688 14.0625 30 9 30C4.03125 30 0 25.9687 0 21Z" fill="#2F57EF"/>
</svg>
