<svg width="30" height="30" viewBox="0 0 30 30" fill="none" xmlns="http://www.w3.org/2000/svg">
<g clip-path="url(#clip0_182_1216)">
<path d="M28.1659 18.7294V16.8359H19.4371C19.4371 19.286 17.451 21.2722 15.0009 21.2722C12.5508 21.2722 10.5646 19.286 10.5646 16.8359H1.83594V18.7294L5.62625 19.1308C5.86268 20.0999 6.24547 21.0117 6.7499 21.8414L4.35295 24.8061L7.03074 27.4839L9.99541 25.0869C10.8251 25.5914 11.7369 25.9742 12.7061 26.2106L13.1074 30.0009H16.8944L17.2957 26.2106C18.2649 25.9742 19.1767 25.5914 20.0064 25.0869L22.9711 27.4839L25.6488 24.8061L23.2519 21.8414C23.7563 21.0117 24.1391 20.0999 24.3755 19.1308L28.1659 18.7294Z" fill="white"/>
<path d="M15.0019 0C13.127 0 11.6016 1.52543 11.6016 3.40037C11.6016 5.27531 13.127 6.80068 15.0019 6.80068C16.8769 6.80068 18.4023 5.27531 18.4023 3.40037C18.4023 1.52543 16.8769 0 15.0019 0Z" fill="white"/>
<path d="M18.6231 7.74023H11.3825C9.71553 7.74029 8.35938 9.09639 8.35938 10.7633V15.0766H21.6462V10.7633C21.6462 9.09639 20.2901 7.74023 18.6231 7.74023Z" fill="white"/>
<path d="M7.7883 1.57031C6.10865 1.57031 4.74219 2.93684 4.74219 4.61643C4.74219 6.28254 6.08697 7.63975 7.74805 7.66148C8.43594 6.85688 9.3851 6.2826 10.4635 6.07195C10.6998 5.63924 10.8344 5.1433 10.8344 4.61643C10.8344 2.93678 9.46795 1.57031 7.7883 1.57031Z" fill="white"/>
<path d="M4.54408 8.50586C3.05082 8.50586 1.83594 9.72068 1.83594 11.214V15.078H6.59967V10.7646C6.59967 9.94809 6.8058 9.17893 7.1682 8.50586H4.54408Z" fill="white"/>
<path d="M22.2141 1.57031C20.5344 1.57031 19.168 2.93684 19.168 4.61643C19.168 5.14324 19.3025 5.63924 19.5389 6.07195C20.6173 6.2826 21.5664 6.85688 22.2543 7.66148C23.9154 7.63981 25.2602 6.28254 25.2602 4.61643C25.2602 2.93678 23.8937 1.57031 22.2141 1.57031Z" fill="white"/>
<path d="M25.4562 8.50586H22.832C23.1944 9.17893 23.4006 9.94809 23.4006 10.7646V15.0779H28.1643V11.2139C28.1643 9.72068 26.9494 8.50586 25.4562 8.50586Z" fill="white"/>
</g>
<defs>
<clipPath id="clip0_182_1216">
<rect width="30" height="30" fill="white"/>
</clipPath>
</defs>
</svg>
