<svg width="107" height="87" viewBox="0 0 107 87" fill="none" xmlns="http://www.w3.org/2000/svg">
<path d="M1.34117 30.9693C1.99558 31.4536 2.93142 31.5451 3.74289 31.8199C5.20223 32.3238 6.64844 32.8539 8.12087 33.3251C9.68124 33.8199 11.1262 34.6236 12.3696 35.6882C13.613 36.7529 14.6295 38.0568 15.3587 39.5223C16.4094 41.4888 17.3149 43.5295 18.068 45.6281C19.0954 48.5336 19.8479 51.5178 20.8034 54.4692C21.2218 55.9479 21.8104 57.3732 22.5572 58.7163C23.035 59.5016 24.0886 59.9269 24.5205 60.2672C26.3659 60.4308 27.6486 59.7502 28.1394 58.1534C28.8402 55.865 29.376 53.5294 29.7427 51.1644C30.6392 45.5888 33.5448 41.2697 37.9294 37.9322C40.1024 36.2547 42.4423 34.8051 44.912 33.6064C48.7861 31.761 49.0675 28.3711 44.9839 26.5715C39.7486 24.2549 36.7449 20.0274 34.9191 14.7921C33.8393 11.7229 32.9559 8.58829 31.9939 5.47983C31.684 4.13862 31.2637 2.82532 30.7374 1.55336C30.292 0.831246 29.5911 0.303238 28.7741 0.074387C27.6878 -0.233187 26.7716 0.453946 26.2285 1.38321C25.7415 2.28793 25.33 3.23134 24.9982 4.20376C24.0427 6.7756 23.1724 9.3802 22.1646 11.9324C20.6552 15.7844 18.2584 19.2261 15.1689 21.9777C12.2764 24.5953 9.08289 26.3556 5.05172 26.4603C3.69578 26.5658 2.36784 26.9022 1.12525 27.455C0.60826 27.6579 -0.0723023 28.5152 0.00622713 28.9537C0.195089 29.7639 0.668838 30.4793 1.34117 30.9693ZM19.4291 24.4252C21.1939 22.5751 22.7702 20.5538 24.1344 18.3914C25.4825 16.2449 26.4444 13.8563 28.1066 10.5384C30.8355 18.5615 33.3812 25.4787 40.5405 29.752C38.1649 31.46 36.0054 32.7624 34.1599 34.405C32.0992 36.1922 30.2266 38.1854 28.5712 40.3535C27.0857 42.369 26.0976 44.7445 24.6448 47.3556C23.0938 43.7825 21.8178 40.5498 20.2995 37.4283C18.7822 34.2393 16.3843 31.5507 13.3889 29.68C15.6532 27.756 17.708 26.2639 19.4422 24.4512L19.4291 24.4252Z" fill="#2F57EF"/>
<path d="M60.2905 57.1843C60.9449 57.6686 61.8807 57.7602 62.6856 58.0351C64.1515 58.5324 65.5978 59.0691 67.0637 59.5402C68.6241 60.0351 70.0689 60.8387 71.3123 61.9034C72.5557 62.968 73.5723 64.2719 74.3014 65.7375C75.353 67.7022 76.2607 69.7406 77.0173 71.8367C78.0381 74.7488 78.7973 77.7264 79.7462 80.6843C80.1652 82.1639 80.756 83.5893 81.5065 84.9315C81.9777 85.7167 83.0313 86.142 83.4697 86.4823C85.3086 86.6459 86.5913 85.9654 87.0821 84.3686C87.7819 82.0795 88.3199 79.7441 88.6919 77.3795C89.5819 71.8039 92.4941 67.4848 96.8786 64.1473C99.0484 62.4685 101.386 61.0188 103.855 59.8216C107.729 57.9762 108.017 54.5863 103.927 52.7867C98.6914 50.4701 95.6876 46.2426 93.8618 41.0073C92.7886 37.9381 91.8986 34.8034 90.9432 31.695C90.6312 30.3543 90.211 29.0412 89.6867 27.7685C89.2413 27.0464 88.5404 26.5184 87.7234 26.2895C86.6371 25.9754 85.7144 26.6691 85.1778 27.5984C84.6869 28.5012 84.2752 29.4449 83.9475 30.4189C82.9855 32.9908 82.1217 35.5953 81.1139 38.141C79.6041 41.9947 77.2075 45.4383 74.1183 48.1927C71.2258 50.8103 68.0322 52.5708 64.001 52.6755C62.6446 52.7778 61.3161 53.1144 60.0745 53.6702C59.5575 53.8731 58.8835 54.7238 58.9555 55.1688C59.1455 55.9786 59.6191 56.6935 60.2905 57.1843ZM78.3785 50.6402C80.1397 48.7887 81.7135 46.7676 83.0771 44.6065C84.4252 42.4601 85.3937 40.0714 87.0559 36.7536C89.7848 44.7767 92.3305 51.6939 99.4897 55.9672C97.1077 57.6752 94.9547 58.9774 93.1027 60.62C91.0409 62.404 89.1701 64.3977 87.5206 66.5686C86.0351 68.5842 85.0469 70.9597 83.5941 73.5708C82.0497 69.9977 80.7671 66.765 79.2554 63.6434C77.7353 60.4542 75.3353 57.7658 72.3382 55.8951C74.5959 53.9712 76.6508 52.4922 78.3785 50.6664V50.6402Z" fill="#2F57EF"/>
</svg>
