<svg width="30" height="30" viewBox="0 0 30 30" fill="none" xmlns="http://www.w3.org/2000/svg">
<path d="M11.4258 14.1211C11.9104 14.1211 12.3047 14.5154 12.3047 15C12.3047 15.4846 11.9104 15.8789 11.4258 15.8789C10.9412 15.8789 10.5469 15.4846 10.5469 15C10.5469 14.5154 10.9412 14.1211 11.4258 14.1211Z" fill="white"/>
<path d="M12.3047 10.6934V12.5145C12.0299 12.4166 11.734 12.3633 11.4258 12.3633C9.97207 12.3633 8.78906 13.5463 8.78906 15C8.78906 16.4537 9.97207 17.6367 11.4258 17.6367C11.734 17.6367 12.0299 17.5834 12.3047 17.4855V19.3066C12.017 19.3652 11.7229 19.3945 11.4258 19.3945C9.00293 19.3945 7.03125 17.4229 7.03125 15C7.03125 12.5771 9.00293 10.6055 11.4258 10.6055C11.7229 10.6055 12.017 10.6348 12.3047 10.6934Z" fill="white"/>
<path d="M5.27344 15C5.27344 18.3926 8.0332 21.1523 11.4258 21.1523C11.7217 21.1523 12.0152 21.1318 12.3047 21.0896V26.4258H9.66797C9.18281 26.4258 8.78906 26.032 8.78906 25.5469V24.3023C8.07012 24.0979 7.37695 23.8084 6.7166 23.4375L5.83242 24.3223C5.48906 24.6656 4.93301 24.6656 4.58965 24.3223L2.10352 21.8361C1.76004 21.4927 1.76139 20.9355 2.10352 20.5934L2.98828 19.7086C2.6168 19.0488 2.32793 18.3557 2.12344 17.6367H0.878906C0.39375 17.6367 0 17.243 0 16.7578V13.2422C0 12.757 0.39375 12.3633 0.878906 12.3633H2.12344C2.32793 11.6443 2.6168 10.9512 2.98828 10.2908L2.10352 9.40664C1.76139 9.06451 1.76004 8.50734 2.10352 8.16387L4.58965 5.67773C4.93301 5.33438 5.48906 5.33438 5.83242 5.67773L6.71719 6.5625C7.37695 6.19102 8.07012 5.90215 8.78906 5.69766V4.45312C8.78906 3.96797 9.18281 3.57422 9.66797 3.57422H12.3047V8.91035C12.0152 8.86816 11.7217 8.84766 11.4258 8.84766C8.0332 8.84766 5.27344 11.6074 5.27344 15Z" fill="white"/>
<path d="M24.7266 4.08867V8.84766H29.4855L24.7266 4.08867ZM16.6992 8.84766H20.332C20.8172 8.84766 21.2109 9.24141 21.2109 9.72656C21.2109 10.2117 20.8172 10.6055 20.332 10.6055H16.6992C16.2141 10.6055 15.8203 10.2117 15.8203 9.72656C15.8203 9.24141 16.2141 8.84766 16.6992 8.84766ZM25.6055 21.1523H16.6992C16.2141 21.1523 15.8203 20.7586 15.8203 20.2734C15.8203 19.7883 16.2141 19.3945 16.6992 19.3945H25.6055C26.0906 19.3945 26.4844 19.7883 26.4844 20.2734C26.4844 20.7586 26.0906 21.1523 25.6055 21.1523ZM25.6055 17.6367H16.6992C16.2141 17.6367 15.8203 17.243 15.8203 16.7578C15.8203 16.2727 16.2141 15.8789 16.6992 15.8789H25.6055C26.0906 15.8789 26.4844 16.2727 26.4844 16.7578C26.4844 17.243 26.0906 17.6367 25.6055 17.6367ZM25.6055 14.1211H16.6992C16.2141 14.1211 15.8203 13.7273 15.8203 13.2422C15.8203 12.757 16.2141 12.3633 16.6992 12.3633H25.6055C26.0906 12.3633 26.4844 12.757 26.4844 13.2422C26.4844 13.7273 26.0906 14.1211 25.6055 14.1211ZM23.8477 10.6055C23.3625 10.6055 22.9688 10.2117 22.9688 9.72656V3.57422H14.0625V26.4258H29.1211C29.6062 26.4258 30 26.032 30 25.5469V10.6055H23.8477Z" fill="white"/>
</svg>
