<svg width="61" height="102" viewBox="0 0 61 102" fill="none" xmlns="http://www.w3.org/2000/svg">
<path d="M16.6551 39.5712C13.5707 42.7284 10.3649 45.7679 7.21643 48.8679C5.89501 50.1691 4.55002 51.4501 3.31288 52.8286C2.67072 53.5531 2.14429 54.3718 1.75212 55.2562C1.4472 55.8577 1.38199 56.5521 1.56962 57.1996C1.75725 57.8471 2.18379 58.3997 2.76341 58.7463C3.42283 59.1832 4.15773 59.4944 4.93091 59.6642C6.22199 59.9365 7.54678 60.0575 8.86146 60.2122C10.3548 60.387 11.8481 60.5316 13.3448 60.6829C14.8416 60.8342 15.7551 61.7522 15.9472 63.2282C16.0909 64.2709 16.1203 65.3261 16.0349 66.3752C15.782 69.1188 14.919 71.7045 13.8134 74.2262C10.4795 81.8249 6.73439 89.205 2.24764 96.1985C1.4858 97.382 0.821705 98.6295 0.160997 99.8735C0.0123181 100.149 -0.0353393 100.468 0.0261914 100.775C0.0877221 101.081 0.254589 101.357 0.498093 101.555C0.710675 101.786 0.996077 101.937 1.30692 101.984C1.61777 102.031 1.93542 101.971 2.20719 101.814C2.90657 101.442 3.56041 100.991 4.15561 100.469C6.85238 98.0478 9.49519 95.5799 12.1818 93.149C14.8685 90.7181 17.5147 88.2535 20.2721 85.9235C26.1578 80.9843 32.1244 76.1459 38.0202 71.2202C39.567 69.9044 41.0454 68.5106 42.4497 67.0443C43.1905 66.2871 43.8102 65.4207 44.2868 64.4756C45.2004 62.6062 44.4723 60.9014 42.4632 60.2929C41.1826 59.9639 39.875 59.7501 38.5562 59.6541C36.7157 59.449 34.8482 59.338 33.0144 59.1463C32.6343 59.0676 32.2644 58.9457 31.9121 58.7832C31.6997 57.7745 32.2694 57.2736 32.7447 56.7995C33.9919 55.5487 35.283 54.3451 36.5775 53.1447C43.5756 46.6589 50.3984 39.9848 56.7426 32.8635C57.8056 31.682 58.808 30.4476 59.746 29.165C60.2673 28.4568 60.6535 27.659 60.8854 26.8114C61.2899 25.2144 60.6124 24.0275 59.0247 23.5164C58.1841 23.2585 57.3085 23.1314 56.429 23.1398C54.2177 23.1398 52.0097 23.2508 49.7983 23.2844C48.5005 23.2844 47.1758 23.4391 45.9555 22.9314C45.6858 21.9227 46.2117 21.2738 46.687 20.6686C47.7252 19.3539 48.8141 18.0763 49.9197 16.8188C52.3097 14.1021 54.7773 11.4391 57.1032 8.68205C58.1282 7.46821 58.9999 6.13356 59.6989 4.7079C60.8181 2.38794 59.9146 0.6732 57.3763 0.269728C55.8038 0.0443004 54.2142 -0.0400939 52.6266 0.0175575C44.4992 0.162135 36.3718 0.353725 27.995 0.545374C27.4456 1.18757 26.7242 1.95422 26.0904 2.7847C23.842 5.73341 21.6273 8.70562 19.3957 11.6644C16.7933 15.1175 14.1741 18.5604 11.5852 22.0236C10.939 22.8631 10.35 23.7448 9.82217 24.6629C8.47379 27.0938 9.09743 28.8388 11.6863 29.9551C12.3371 30.2334 13.0149 30.4441 13.7089 30.5839C15.4382 30.9437 17.1742 31.2563 18.9136 31.5657C19.8642 31.7304 20.8115 31.8481 21.6104 32.4802C21.6947 33.4283 21.216 34.0907 20.734 34.6959C19.4125 36.3502 18.1282 38.0515 16.6551 39.5712ZM22.2307 29.7366C21.4128 29.4072 20.5681 29.1485 19.7058 28.9633C18.1619 28.58 16.6012 28.2706 15.0607 27.8773C14.2247 27.6654 13.328 27.5141 12.6639 26.7072C12.7853 25.8196 13.4021 25.1673 13.8976 24.4713C16.0416 21.4453 18.2563 18.473 20.3598 15.4234C22.8644 11.7922 25.2848 8.10378 27.7422 4.44227C27.9377 4.15312 28.14 3.87401 28.4164 3.48063C30.7491 3.19483 33.1357 3.59498 35.4954 3.52101C37.7944 3.44704 40.0934 3.48401 42.3924 3.42013C44.779 3.35625 47.1623 3.19483 49.5489 3.1444C51.8344 3.09733 54.1267 3.1444 56.6043 3.1444C56.4965 3.62184 56.5201 4.09263 56.3043 4.38851C55.293 5.73341 54.3121 7.07832 53.1963 8.33917C51.1973 10.5751 49.0871 12.7101 47.0713 14.9393C45.9335 16.1691 44.8666 17.4623 43.8756 18.8126C43.258 19.6724 42.7865 20.6277 42.48 21.6402C41.8867 23.6576 42.8171 25.3387 44.8397 26.0112C45.6826 26.2657 46.5619 26.3793 47.4421 26.3474C49.8287 26.2802 52.2086 26.0953 54.5919 25.9877C55.7077 25.9339 56.8572 25.6346 57.9224 26.1928C58.128 27.1039 57.5448 27.6083 57.1133 28.1059C55.4953 29.9753 53.8772 31.8448 52.1648 33.6234C46.1645 39.8638 39.9473 45.8822 33.5133 51.6788C32.4649 52.6236 31.4098 53.5751 30.4625 54.6174C29.8042 55.3279 29.2596 56.1354 28.8479 57.0114C27.9242 59.0691 28.7299 60.9687 30.8705 61.6815C31.9659 62.0148 33.0978 62.2146 34.2414 62.2766C35.7347 62.3977 37.2449 62.3472 38.745 62.4145C39.7833 62.4615 40.8417 62.4817 41.9474 63.171C41.5362 63.8199 41.2732 64.4722 40.7945 64.9429C39.5838 66.2269 38.3043 67.4447 36.9618 68.591C32.8728 71.9533 28.7096 75.2416 24.6106 78.5971C19.0047 83.1832 13.392 87.7626 8.25804 92.8867C7.88727 93.226 7.4991 93.5458 7.09508 93.8449C6.70742 93.391 7.03441 93.1187 7.1861 92.8363C10.1076 87.2975 13.0291 81.7587 15.9506 76.22C17.4141 73.4914 18.3679 70.5201 18.7653 67.4511C19.0384 65.7044 18.957 63.9208 18.526 62.206C17.8923 59.9466 16.4697 58.5344 14.1438 58.1208C12.7549 57.872 11.3391 57.7611 9.93677 57.5796C8.53446 57.398 7.13215 57.2433 5.73995 56.9945C5.35229 56.9273 5.00171 56.6213 4.47246 56.3389C4.8563 55.7102 5.28082 55.107 5.74332 54.5333C6.88271 53.2994 8.06592 52.1091 9.24913 50.9223C12.0538 48.108 14.9224 45.3543 17.6765 42.4796C19.362 40.6908 20.9295 38.761 22.4633 36.8277C23.1147 35.9915 23.6468 35.0693 24.0443 34.0874C24.8196 32.1238 24.1622 30.5839 22.2307 29.7265V29.7366Z" fill="#2F57EF"/>
</svg>
