<svg width="124" height="146" viewBox="0 0 124 146" fill="none" xmlns="http://www.w3.org/2000/svg">
<path fill-rule="evenodd" clip-rule="evenodd" d="M35.8095 68.9773C35.9404 70.1421 35.8094 71.1891 36.1955 72.0333C37.2701 74.7055 38.5094 77.3086 39.9061 79.8274C44.5197 87.7261 49.3035 95.5333 53.9825 103.386C57.909 109.93 61.8354 116.474 65.5656 123.117C67.2722 126.237 68.7253 129.489 69.9108 132.841C70.5762 134.759 70.8911 136.78 70.8401 138.81C70.7943 142.082 68.8769 144.13 65.7095 144.902C63.5396 145.339 61.297 145.257 59.1654 144.66C54.5511 143.533 50.0936 141.84 45.8939 139.621C34.9979 134.085 24.547 127.783 14.1877 121.33C10.7324 119.177 7.30982 116.972 3.88725 114.786C2.84566 114.223 1.88392 113.523 1.02747 112.705C0.407311 111.969 0.0462723 111.049 0 110.087C0 109.178 1.42668 108.693 3.01036 109.08C4.16008 109.362 5.27992 109.754 6.35439 110.251C10.2089 112.005 14.1092 113.68 17.8525 115.65C23.5524 118.647 29.1213 121.9 34.782 124.969C41.1821 128.444 47.5888 131.919 54.0675 135.243C56.6957 136.698 59.6107 137.56 62.6076 137.769C63.6677 137.056 63.5172 136.179 63.19 135.407C61.94 132.449 60.8472 129.386 59.2635 126.598C55.5202 119.962 51.5612 113.445 47.6282 106.907C43.1716 99.5056 38.5973 92.1761 34.1931 84.7355C32.4644 81.8228 30.934 78.797 29.6122 75.6785C28.7434 73.6574 28.2191 71.5052 28.0612 69.311C27.7471 63.7747 31.4969 60.2867 37.0005 60.9411C39.1847 61.2097 41.321 61.7801 43.3483 62.636C50.8413 65.7968 58.2558 69.1409 65.7095 72.3867C73.0127 75.5628 80.3247 78.7128 87.6454 81.8365C88.7599 82.2077 89.8964 82.5092 91.0483 82.7395C90.8084 81.663 90.4936 80.6047 90.106 79.5722C87.3706 73.7414 84.5499 67.9499 81.8341 62.1125C80.257 58.7292 78.6996 55.3328 77.3712 51.8578C76.5083 49.6472 75.9066 47.3433 75.5781 44.9931C74.7928 38.8743 77.8227 35.1769 83.9284 34.673C85.9584 34.553 87.9942 34.5771 90.0208 34.745C94.9289 35.0525 99.8372 35.4845 104.732 35.779C107.095 35.923 109.47 35.8967 111.846 35.8902C113.01 35.8902 114.182 35.7397 115.033 35.6808C116.132 33.1744 115.517 31.3551 115.033 29.6078C114.293 26.9902 113.383 24.4445 112.461 21.8923C110.668 16.9515 108.783 12.0434 107.023 7.09607C106.447 5.50741 106.03 3.86551 105.779 2.19453C105.668 1.48776 106.198 0.689397 106.434 0.00226449C108.305 -0.0566326 109.228 1.04277 109.869 2.20108C114.156 9.89042 119.031 17.2918 122.126 25.5897C123.121 28.2889 123.71 31.1205 123.874 33.9924C124.142 38.9266 121.302 42.4998 116.479 43.4683C113.645 43.9776 110.761 44.1511 107.886 43.9853C101.624 43.6842 95.3806 43.0822 89.1244 42.6764C87.3051 42.5521 85.4335 42.166 83.5815 43.0887C83.3263 45.4708 84.092 47.5518 84.8904 49.5543C86.4937 53.4808 88.2082 57.3549 89.9686 61.2029C92.5862 66.9028 95.3282 72.5438 97.9196 78.2568C98.7934 80.0899 99.4522 82.018 99.8829 84.0025C100.668 88.0141 98.1553 91.2011 94.0783 91.1095C91.5411 91.066 89.0295 90.5924 86.6507 89.709C79.8513 87.0914 73.1305 84.2905 66.4555 81.3914C58.3735 77.8707 50.3832 74.1929 42.3274 70.5806C40.3576 69.6709 38.3944 68.6632 35.8095 68.9773Z" fill="#2F57EF"/>
</svg>
